<svg width="151" height="114" viewBox="0 0 151 114" fill="none" xmlns="http://www.w3.org/2000/svg">
<g filter="url(#filter0_d_269_1803)">
<rect x="24" y="24" width="103" height="66" rx="24" fill="white"/>
<rect x="24.5" y="24.5" width="102" height="65" rx="23.5" stroke="#979797" stroke-opacity="0.1"/>
</g>
<path d="M56.25 3.375H86.5C88.0187 3.375 89.25 4.60632 89.25 6.125V43.25C89.25 44.7687 88.0187 46 86.5 46H56.25C54.7313 46 53.5 44.7687 53.5 43.25V6.125C53.5 4.60632 54.7313 3.375 56.25 3.375Z" fill="#ECCE93"/>
<path d="M56.25 34.1943V6.125H86.5V43.25H65.3057L56.25 34.1943Z" fill="#EFEFEF"/>
<path d="M65.3057 34.1943V43.25L56.25 34.1943H65.3057Z" fill="#FDC53A"/>
<path d="M64.5 7.5V2H78.25V7.5C78.25 9.01868 77.0187 10.25 75.5 10.25H67.25C65.7313 10.25 64.5 9.01868 64.5 7.5Z" fill="#FDC53A"/>
<path d="M97.5 33.625C97.5 40.4594 91.9594 46 85.125 46C78.2906 46 72.75 40.4594 72.75 33.625C72.75 26.7906 78.2906 21.25 85.125 21.25C91.9594 21.25 97.5 26.7906 97.5 33.625Z" fill="#FDC53A"/>
<path d="M82.2905 38.9229L79.6257 36.2568C79.089 35.7197 79.089 34.8493 79.6257 34.3125C80.1625 33.7757 81.033 33.7757 81.5701 34.3125L82.461 35.2021L88.6884 30.0116C89.2719 29.5248 90.1396 29.6037 90.6257 30.1875C91.1125 30.7709 91.0336 31.6387 90.4498 32.1248L82.2905 38.9229Z" fill="white"/>
<path d="M68.625 13H79.625C80.3843 13 81 13.6157 81 14.375C81 15.1343 80.3843 15.75 79.625 15.75H68.625C67.8657 15.75 67.25 15.1343 67.25 14.375C67.25 13.6157 67.8657 13 68.625 13Z" fill="#CCCCCC"/>
<path d="M61.75 13H64.5V15.75H61.75V13Z" fill="#CCCCCC"/>
<path d="M61.75 18.5H64.5V21.25H61.75V18.5Z" fill="#CCCCCC"/>
<path d="M61.75 24H64.5V26.75H61.75V24Z" fill="#CCCCCC"/>
<path d="M61.75 29.5H64.5V32.25H61.75V29.5Z" fill="#CCCCCC"/>
<path d="M68.625 18.5H76.875C77.6343 18.5 78.25 19.1157 78.25 19.875C78.25 20.6343 77.6343 21.25 76.875 21.25H68.625C67.8657 21.25 67.25 20.6343 67.25 19.875C67.25 19.1157 67.8657 18.5 68.625 18.5Z" fill="#CCCCCC"/>
<path d="M68.625 24H71.375C72.1343 24 72.75 24.6157 72.75 25.375C72.75 26.1343 72.1343 26.75 71.375 26.75H68.625C67.8657 26.75 67.25 26.1343 67.25 25.375C67.25 24.6157 67.8657 24 68.625 24Z" fill="#CCCCCC"/>
<path d="M61.1301 61.328C60.6728 61.328 60.4441 61.0947 60.4441 60.628C60.4441 60.1707 60.6728 59.942 61.1301 59.942C61.5781 59.942 61.8021 60.1707 61.8021 60.628C61.8021 61.0947 61.5781 61.328 61.1301 61.328ZM54.9841 69C54.1908 69 53.5654 68.734 53.1081 68.202C52.7068 67.726 52.5061 67.1193 52.5061 66.382V64.702L53.7101 64.058V66.27C53.7101 67.334 54.2001 67.866 55.1801 67.866H59.0021C58.5634 67.3807 58.3441 66.718 58.3441 65.878C58.3441 64.8607 58.6101 64.0673 59.1421 63.498C59.6181 62.994 60.2434 62.742 61.0181 62.742C61.8114 62.742 62.4228 62.9893 62.8521 63.484C63.2348 63.9227 63.4261 64.4967 63.4261 65.206V66.522C63.4261 67.306 63.1881 67.9267 62.7121 68.384C62.2734 68.7947 61.6948 69 60.9761 69H54.9841ZM62.2221 65.262C62.2221 64.3287 61.8208 63.862 61.0181 63.862C60.5514 63.862 60.1874 64.0393 59.9261 64.394C59.6741 64.7393 59.5481 65.2247 59.5481 65.85C59.5481 66.466 59.6741 66.956 59.9261 67.32C60.1781 67.684 60.5141 67.866 60.9341 67.866C61.7928 67.866 62.2221 67.3993 62.2221 66.466V65.262ZM68.2448 69C67.4328 69 66.8075 68.7387 66.3688 68.216C65.9955 67.768 65.8088 67.1987 65.8088 66.508V60.614L67.0128 59.97V66.466C67.0128 67.3993 67.4702 67.866 68.3848 67.866H69.3088V69H68.2448ZM71.1228 61.23C70.6655 61.23 70.4368 60.9967 70.4368 60.53C70.4368 60.0727 70.6655 59.844 71.1228 59.844C71.5708 59.844 71.7948 60.0727 71.7948 60.53C71.7948 60.9967 71.5708 61.23 71.1228 61.23ZM73.3348 67.866H74.2588V69H73.1948C72.4201 69 71.8088 68.7527 71.3608 68.258C70.9128 68.7527 70.3015 69 69.5268 69H68.4628V67.866H69.3868C70.3015 67.866 70.7588 67.3993 70.7588 66.466V63.568L71.9628 62.924V66.466C71.9628 67.3993 72.4201 67.866 73.3348 67.866ZM77.822 67.824C78.1954 66.4147 78.8114 65.2387 79.67 64.296C80.6314 63.26 81.7514 62.742 83.03 62.742C84.094 62.742 84.9434 63.1107 85.578 63.848C86.11 64.4733 86.376 65.2433 86.376 66.158V66.522C86.376 67.334 86.1287 67.964 85.634 68.412C85.2047 68.804 84.64 69 83.94 69H78.144C77.3694 69 76.758 68.7527 76.31 68.258C75.862 68.7527 75.2507 69 74.476 69H73.412V67.866H74.336C75.2507 67.866 75.708 67.3993 75.708 66.466V64.506L76.912 63.862V66.466C76.912 67.25 77.2154 67.7027 77.822 67.824ZM85.172 66.41V66.158C85.172 65.43 84.948 64.8513 84.5 64.422C84.108 64.0487 83.6227 63.862 83.044 63.862C82.0547 63.862 81.1634 64.3193 80.37 65.234C79.7634 65.934 79.2967 66.8113 78.97 67.866H83.87C84.738 67.866 85.172 67.3807 85.172 66.41ZM92.0715 60.124L91.7495 60.726H89.4395L89.7615 60.124H90.1395C90.0462 59.956 89.9995 59.7787 89.9995 59.592C89.9995 59.3213 90.1022 59.088 90.3075 58.892C90.5128 58.6867 90.7555 58.584 91.0355 58.584C91.2688 58.584 91.4928 58.6587 91.7075 58.808V59.424C91.5022 59.2653 91.3062 59.186 91.1195 59.186C90.7742 59.186 90.6015 59.34 90.6015 59.648C90.6015 59.8067 90.6668 59.9653 90.7975 60.124H92.0715ZM93.8075 60.614L95.0255 59.97V66.354C95.0255 67.1847 94.7782 67.8427 94.2835 68.328C93.8168 68.776 93.2055 69 92.4495 69H87.6335L88.2215 67.866H90.2655V62.434L91.4695 61.79V67.866H92.3515C93.3222 67.866 93.8075 67.3573 93.8075 66.34V60.614ZM97.5413 69V60.614L98.7453 59.97V69H97.5413Z" fill="#323232"/>
<defs>
<filter id="filter0_d_269_1803" x="0" y="0" width="151" height="114" filterUnits="userSpaceOnUse" color-interpolation-filters="sRGB">
<feFlood flood-opacity="0" result="BackgroundImageFix"/>
<feColorMatrix in="SourceAlpha" type="matrix" values="0 0 0 0 0 0 0 0 0 0 0 0 0 0 0 0 0 0 127 0" result="hardAlpha"/>
<feOffset/>
<feGaussianBlur stdDeviation="12"/>
<feComposite in2="hardAlpha" operator="out"/>
<feColorMatrix type="matrix" values="0 0 0 0 0 0 0 0 0 0 0 0 0 0 0 0 0 0 0.05 0"/>
<feBlend mode="normal" in2="BackgroundImageFix" result="effect1_dropShadow_269_1803"/>
<feBlend mode="normal" in="SourceGraphic" in2="effect1_dropShadow_269_1803" result="shape"/>
</filter>
</defs>
</svg>
