<svg width="252" height="144" viewBox="0 0 252 144" fill="none" xmlns="http://www.w3.org/2000/svg">
<g filter="url(#filter0_d_269_1437)">
<path d="M45.82 42.46L45.8199 41.9601H45.32H17.9381C17.9854 40.8684 18.2268 39.7924 18.6521 38.783C19.1415 37.6213 19.8642 36.5725 20.7755 35.7015L20.7814 35.6958L20.7871 35.69C21.6881 34.7705 22.7666 34.0437 23.9572 33.5538C25.1477 33.0639 26.4253 32.821 27.7126 32.84V32.8401H27.72H83.0025C82.9558 33.9379 82.7099 35.0196 82.2755 36.0319C81.776 37.1957 81.0383 38.2421 80.1099 39.1035L80.1012 39.1116L80.0929 39.1201C79.1974 40.0338 78.1266 40.7572 76.9447 41.2469C75.7628 41.7367 74.4942 41.9826 73.2149 41.9701H73.21H55.62H55.12V42.4701L55.1199 94.3901L55.12 94.3976C55.1393 95.6676 54.8965 96.928 54.4068 98.0999C53.9171 99.2719 53.1911 100.33 52.274 101.209L52.2739 101.209L52.2642 101.219C51.3598 102.135 50.2802 102.859 49.0898 103.349C48.052 103.776 46.9486 104.017 45.8299 104.063L45.82 42.46Z" fill="#282626" stroke="#282626"/>
<path d="M194.76 103.981L194.753 103.981C184.866 103.526 176.577 100.03 170.082 93.5852L170.082 93.5851L170.074 93.5773C166.671 90.3487 163.974 86.4494 162.154 82.1258C160.334 77.8022 159.43 73.1481 159.5 68.4575L159.5 68.45L159.5 68.4424C159.427 63.6324 160.374 58.8616 162.28 54.4447C164.186 50.0279 167.007 46.0655 170.557 42.819L170.563 42.8139L170.569 42.8086C173.888 39.5811 177.814 37.0416 182.118 35.336C186.423 33.6304 191.022 32.7924 195.652 32.87L195.652 32.8701H195.66H221.972C221.926 33.9636 221.685 35.0415 221.26 36.0528C220.77 37.2162 220.047 38.2665 219.134 39.1386L219.129 39.1443L219.123 39.1501C218.227 40.0638 217.157 40.7872 215.975 41.2769C214.793 41.7667 213.524 42.0126 212.245 42.0001H212.24H196.574C193.042 41.9443 189.535 42.6046 186.265 43.941C182.996 45.2769 180.031 47.2609 177.55 49.7733C175.021 52.1827 173.019 55.0897 171.67 58.3112C170.321 61.5323 169.654 64.998 169.71 68.4897C169.643 72.2895 170.441 76.0547 172.044 79.5009C173.647 82.9497 176.014 85.9887 178.965 88.388L178.964 88.3881L178.973 88.395C182.911 91.4524 187.62 93.3552 192.577 93.8907C197.533 94.4263 202.54 93.5737 207.04 91.428C211.539 89.2823 215.354 85.9281 218.058 81.7398C220.761 77.5516 222.247 72.6943 222.35 67.7104L222.35 67.7104V67.7001V67.5001V67.0001H221.85H194.625C194.667 65.8992 194.905 64.8132 195.332 63.7944C195.821 62.6242 196.548 61.5678 197.465 60.6917L197.471 60.686L197.477 60.68C198.373 59.7663 199.443 59.0429 200.625 58.5532C201.807 58.0635 203.076 57.8175 204.355 57.8301H204.36H231.6L231.6 68.4501L231.6 68.4588C231.682 73.1481 230.787 77.8031 228.972 82.1276C227.156 86.4521 224.461 90.3513 221.056 93.5771L221.056 93.5771L221.051 93.5822C214.211 100.255 205.72 103.768 195.559 104.03L194.76 103.981Z" fill="#282626" stroke="#282626"/>
<path d="M98.47 93.4701V73.2001H107.59V93.4701H98.47Z" fill="#FDC53A" stroke="#282626"/>
<path d="M98.47 93.4701V78.3201H107.59V93.4701H98.47Z" fill="#282626" stroke="#282626"/>
<path d="M124.91 93.4701V69.9601H134.03V93.4701H124.91Z" fill="#016944" stroke="#282626"/>
<path d="M124.91 93.4701V76.2201H134.03V93.4701H124.91Z" fill="#282626" stroke="#282626"/>
<path d="M111.52 93.4701V54.7101H120.64V93.4701H111.52Z" fill="#DD2525" stroke="#282626"/>
<path d="M111.52 93.47V66.05H120.64V93.47H111.52Z" fill="#282626" stroke="#282626"/>
<mask id="path-9-inside-1_269_1437" fill="white">
<path d="M144.64 46.6101L137 53.6801C140.045 57.8644 141.645 62.9259 141.56 68.1001C141.613 71.4453 140.968 74.7648 139.666 77.8468C138.365 80.9288 136.435 83.7057 134 86.0001C129.132 90.7331 122.61 93.381 115.82 93.381C109.03 93.381 102.508 90.7331 97.6399 86.0001C95.2246 83.6937 93.3117 80.9133 92.0212 77.8331C90.7306 74.7529 90.0901 71.4393 90.1399 68.1001C90.135 68.0068 90.135 67.9133 90.1399 67.8201L80.0699 77.5201C81.6702 83.8036 84.9994 89.5128 89.6799 94.0001C96.5872 100.72 105.843 104.479 115.48 104.479C125.116 104.479 134.373 100.72 141.28 94.0001C144.749 90.6816 147.493 86.6801 149.338 82.2482C151.183 77.8162 152.089 73.0499 152 68.2501C152.133 60.4044 149.539 52.7558 144.66 46.6101"/>
</mask>
<path d="M144.64 46.6101L137 53.6801C140.045 57.8644 141.645 62.9259 141.56 68.1001C141.613 71.4453 140.968 74.7648 139.666 77.8468C138.365 80.9288 136.435 83.7057 134 86.0001C129.132 90.7331 122.61 93.381 115.82 93.381C109.03 93.381 102.508 90.7331 97.6399 86.0001C95.2246 83.6937 93.3117 80.9133 92.0212 77.8331C90.7306 74.7529 90.0901 71.4393 90.1399 68.1001C90.135 68.0068 90.135 67.9133 90.1399 67.8201L80.0699 77.5201C81.6702 83.8036 84.9994 89.5128 89.6799 94.0001C96.5872 100.72 105.843 104.479 115.48 104.479C125.116 104.479 134.373 100.72 141.28 94.0001C144.749 90.6816 147.493 86.6801 149.338 82.2482C151.183 77.8162 152.089 73.0499 152 68.2501C152.133 60.4044 149.539 52.7558 144.66 46.6101" fill="#282626"/>
<path d="M137 53.6801L136.321 52.9461L135.668 53.5498L136.191 54.2684L137 53.6801ZM141.56 68.1001L140.56 68.0836L140.56 68.0997L140.56 68.1159L141.56 68.1001ZM134 86.0001L133.314 85.2723L133.308 85.2776L133.303 85.2831L134 86.0001ZM97.6399 86.0001L98.3371 85.283L98.3306 85.2768L97.6399 86.0001ZM90.1399 68.1001L91.1398 68.115L91.1403 68.0808L91.1385 68.0466L90.1399 68.1001ZM90.1399 67.8201L91.1385 67.8735L91.2741 65.3391L89.4462 67.0998L90.1399 67.8201ZM80.0699 77.5201L79.3762 76.7998L78.9574 77.2033L79.1009 77.7668L80.0699 77.5201ZM89.6799 94.0001L90.3773 93.2833L90.372 93.2782L89.6799 94.0001ZM115.48 104.479V103.479V104.479ZM141.28 94.0001L140.589 93.2774L140.583 93.2833L141.28 94.0001ZM152 68.2501L151 68.2331L151 68.2509L151 68.2687L152 68.2501ZM143.961 45.8761L136.321 52.9461L137.679 54.414L145.319 47.344L143.961 45.8761ZM136.191 54.2684C139.108 58.2773 140.642 63.1264 140.56 68.0836L142.56 68.1166C142.649 62.7253 140.981 57.4516 137.809 53.0917L136.191 54.2684ZM140.56 68.1159C140.611 71.3222 139.993 74.5038 138.745 77.4578L140.588 78.2359C141.943 75.0258 142.615 71.5684 142.56 68.0842L140.56 68.1159ZM138.745 77.4578C137.498 80.4117 135.648 83.0732 133.314 85.2723L134.686 86.7279C137.222 84.3381 139.232 81.446 140.588 78.2359L138.745 77.4578ZM133.303 85.2831C128.621 89.8346 122.349 92.381 115.82 92.381V94.381C122.87 94.381 129.642 91.6316 134.697 86.717L133.303 85.2831ZM115.82 92.381C109.291 92.381 103.019 89.8346 98.337 85.2831L96.9429 86.717C101.998 91.6316 108.77 94.381 115.82 94.381V92.381ZM98.3306 85.2768C96.0148 83.0656 94.1808 80.3998 92.9435 77.4466L91.0989 78.2195C92.4427 81.4267 94.4344 84.3218 96.9493 86.7233L98.3306 85.2768ZM92.9435 77.4466C91.7061 74.4935 91.0921 71.3165 91.1398 68.115L89.1401 68.0851C89.0882 71.5621 89.755 75.0123 91.0989 78.2195L92.9435 77.4466ZM91.1385 68.0466C91.1354 67.989 91.1354 67.9312 91.1385 67.8735L89.1414 67.7666C89.1345 67.8955 89.1345 68.0246 89.1414 68.1535L91.1385 68.0466ZM89.4462 67.0998L79.3762 76.7998L80.7637 78.2403L90.8337 68.5403L89.4462 67.0998ZM79.1009 77.7668C80.7472 84.2315 84.1724 90.1053 88.9879 94.7219L90.372 93.2782C85.8264 88.9203 82.5931 83.3756 81.039 77.2733L79.1009 77.7668ZM88.9826 94.7168C96.0766 101.618 105.583 105.479 115.48 105.479V103.479C106.104 103.479 97.0978 99.8212 90.3772 93.2833L88.9826 94.7168ZM115.48 105.479C125.377 105.479 134.883 101.618 141.977 94.7168L140.583 93.2833C133.862 99.8212 124.856 103.479 115.48 103.479V105.479ZM141.971 94.7227C145.54 91.3087 148.363 87.192 150.261 82.6325L148.415 81.8638C146.623 86.1682 143.958 90.0545 140.589 93.2774L141.971 94.7227ZM150.261 82.6325C152.159 78.073 153.092 73.1695 153 68.2315L151 68.2687C151.087 72.9304 150.206 77.5594 148.415 81.8638L150.261 82.6325ZM153 68.267C153.137 60.1898 150.466 52.3154 145.443 45.9883L143.877 47.2318C148.612 53.1961 151.129 60.619 151 68.2331L153 68.267Z" fill="#282626" mask="url(#path-9-inside-1_269_1437)"/>
<path d="M144.301 46.2424L136.631 53.3122L136.631 53.3124L132.527 57.0911L115.443 43.39L115.1 43.115L114.783 43.4198L89.8033 67.4598L89.8031 67.46L79.7341 77.159L79.7331 77.16L77.9695 78.8491L72.2516 72.7381L79.4871 65.76L79.4872 65.7599L113.697 32.7499L113.698 32.7487L114.404 32.0637L115.115 32.7016L115.116 32.7024L130.195 46.2816L130.512 46.5665L130.843 46.2996L138.272 40.3211L138.273 40.3196L140.142 38.8311L140.561 38.4967L140.198 38.1017L137.418 35.0774L157.045 31.9525L149.596 47.7826L146.649 44.7421L146.31 44.392L145.951 44.7223L144.301 46.2423L144.301 46.2424Z" fill="#DD2525" stroke="#282626"/>
<path d="M32.6224 115.861L31.4524 118.161L31.2524 118.051C31.2524 118.051 31.2524 117.961 31.2524 117.931C31.2524 117.901 31.1124 117.601 30.8324 117.411C29.9495 116.809 28.9006 116.498 27.8324 116.521C27.3784 116.511 26.9259 116.575 26.4924 116.711C26.2295 116.793 25.9921 116.941 25.8024 117.141C25.6406 117.307 25.5477 117.528 25.5424 117.761C25.5424 118.131 25.7624 118.381 26.2124 118.511C26.6997 118.62 27.1943 118.693 27.6924 118.731L28.8124 118.841C29.3635 118.892 29.9089 118.993 30.4424 119.141C30.8343 119.254 31.2056 119.43 31.5424 119.661C31.8729 119.901 32.1377 120.221 32.3124 120.591C32.5 120.97 32.5959 121.388 32.5924 121.811C32.5979 122.483 32.3639 123.135 31.9324 123.651C31.4284 124.191 30.7733 124.567 30.0524 124.731C29.4009 124.909 28.7278 124.996 28.0524 124.991C26.7209 124.981 25.4098 124.663 24.2224 124.061C24.0693 123.981 23.9084 123.917 23.7424 123.871C23.6303 123.897 23.5269 123.952 23.4424 124.031L23.2324 123.931L24.3024 121.521L24.5024 121.621V121.721C24.5092 121.835 24.5404 121.947 24.5939 122.049C24.6473 122.151 24.7218 122.24 24.8124 122.311C25.2363 122.649 25.727 122.895 26.2524 123.031C26.8507 123.222 27.4742 123.323 28.1024 123.331C28.6626 123.345 29.2191 123.235 29.7324 123.011C29.9684 122.902 30.1743 122.737 30.3324 122.531C30.4735 122.355 30.5511 122.136 30.5524 121.911C30.5537 121.754 30.5034 121.602 30.4094 121.477C30.3154 121.353 30.1829 121.262 30.0324 121.221C29.5509 121.075 29.0543 120.984 28.5524 120.951L27.3924 120.841C26.6524 120.761 26.1324 120.691 25.8224 120.621C25.5055 120.547 25.1996 120.433 24.9124 120.281C24.4835 120.059 24.134 119.709 23.9124 119.281C23.6797 118.873 23.5622 118.41 23.5724 117.941C23.562 117.557 23.6333 117.176 23.7816 116.823C23.9299 116.469 24.1517 116.152 24.4324 115.891C25.3648 115.107 26.5684 114.723 27.7824 114.821C28.3712 114.814 28.9586 114.878 29.5324 115.011C30.216 115.192 30.8847 115.426 31.5324 115.711C31.6945 115.789 31.8658 115.846 32.0424 115.881C32.1742 115.863 32.297 115.803 32.3924 115.711L32.6224 115.861Z" fill="#840200"/>
<path d="M40.8522 122.331H36.3922L35.7322 123.701C35.6555 123.84 35.6079 123.993 35.5922 124.151C35.5922 124.361 35.7522 124.511 36.0722 124.591V124.821H32.8422V124.591C33.005 124.567 33.1577 124.498 33.2822 124.391C33.4273 124.225 33.5424 124.036 33.6222 123.831L37.2222 116.311C37.3245 116.133 37.386 115.935 37.4022 115.731C37.4022 115.511 37.2622 115.351 36.9822 115.261V115.031H40.4522V115.261C40.1722 115.341 40.0322 115.481 40.0322 115.681C40.0418 115.849 40.0897 116.013 40.1722 116.161L43.9022 123.701C44.0029 123.941 44.1413 124.164 44.3122 124.361C44.4454 124.484 44.6127 124.564 44.7922 124.591V124.821H41.1922V124.591C41.5022 124.541 41.6622 124.391 41.6622 124.151C41.6489 123.992 41.6011 123.839 41.5222 123.701L40.8522 122.331ZM40.2322 120.981L38.6422 117.471L37.0322 120.951L40.2322 120.981Z" fill="#840200"/>
<path d="M49.2023 121.971L51.8023 116.231C51.8937 116.053 51.9513 115.86 51.9723 115.661C51.9723 115.451 51.8123 115.321 51.4923 115.261V115.031H54.8423V115.261C54.6714 115.272 54.5111 115.347 54.3923 115.471C54.2155 115.714 54.071 115.98 53.9623 116.261L50.5723 123.581C50.4653 123.77 50.3909 123.976 50.3523 124.191C50.3523 124.441 50.5023 124.581 50.8023 124.621V124.851H47.4523V124.621C47.7523 124.621 47.9023 124.431 47.9023 124.181C47.8635 123.971 47.7926 123.769 47.6923 123.581L44.2923 116.261C44.1811 115.983 44.0403 115.718 43.8723 115.471C43.7503 115.363 43.5951 115.299 43.4323 115.291V115.061H46.9123V115.291C46.5923 115.351 46.4423 115.481 46.4423 115.691C46.4585 115.889 46.5128 116.083 46.6023 116.261L49.2023 121.971Z" fill="#840200"/>
<path d="M58.2723 120.521V123.211H64.5723C64.6905 123.216 64.8069 123.181 64.9023 123.111C64.9976 123.01 65.0634 122.886 65.0923 122.751H65.3223V125.281H65.0923C65.0634 125.145 64.9976 125.021 64.9023 124.921C64.809 124.847 64.691 124.811 64.5723 124.821H55.6823V124.591C55.8129 124.563 55.9337 124.501 56.0323 124.411C56.1069 124.314 56.1426 124.193 56.1323 124.071V115.781C56.1382 115.722 56.1323 115.662 56.1152 115.606C56.098 115.549 56.0699 115.496 56.0323 115.451C55.9376 115.353 55.8155 115.287 55.6823 115.261V115.031H64.3923C64.5109 115.039 64.6285 115.004 64.7223 114.931C64.8176 114.83 64.8834 114.706 64.9123 114.571H65.1423V117.101H64.9123C64.8859 116.967 64.8197 116.845 64.7223 116.751C64.6295 116.675 64.5121 116.636 64.3923 116.641H58.2723V118.971H62.2723C62.3903 118.974 62.5062 118.939 62.6023 118.871C62.694 118.769 62.7562 118.645 62.7823 118.511H63.0123V120.981H62.7823C62.7541 120.85 62.692 120.73 62.6023 120.631C62.5095 120.555 62.3921 120.516 62.2723 120.521H58.2723Z" fill="#840200"/>
<path d="M75.6622 116.641V124.071C75.6519 124.193 75.6876 124.314 75.7622 124.411C75.8608 124.501 75.9816 124.563 76.1122 124.591V124.821H73.1122V124.591C73.2448 124.56 73.3681 124.498 73.4722 124.411C73.5421 124.311 73.5773 124.192 73.5722 124.071V116.641H70.5722C70.4538 116.634 70.3369 116.669 70.2422 116.741C70.1469 116.841 70.0811 116.965 70.0522 117.101H69.8222V114.571H70.0522C70.0854 114.704 70.1506 114.828 70.2422 114.931C70.2879 114.968 70.3406 114.996 70.3972 115.014C70.4539 115.031 70.5133 115.037 70.5722 115.031H78.6922C78.814 115.041 78.9353 115.005 79.0322 114.931C79.1239 114.829 79.1861 114.705 79.2122 114.571H79.4422V117.101H79.2122C79.1861 116.967 79.1239 116.842 79.0322 116.741C78.933 116.671 78.8135 116.636 78.6922 116.641H75.6622Z" fill="#840200"/>
<path d="M80.8823 124.071V115.771C80.8876 115.656 80.8522 115.542 80.7823 115.451C80.6821 115.355 80.5575 115.29 80.4223 115.261V115.031H83.4223V115.261C83.2887 115.28 83.1654 115.343 83.0723 115.441C82.9992 115.534 82.9636 115.652 82.9723 115.771V124.071C82.962 124.192 82.9977 124.314 83.0723 124.411C83.1686 124.504 83.2904 124.566 83.4223 124.591V124.821H80.3923V124.591C80.5248 124.56 80.6482 124.498 80.7523 124.411C80.8329 124.315 80.8788 124.195 80.8823 124.071Z" fill="#840200"/>
<path d="M91.2624 124.821L87.6524 118.061V124.061C87.6421 124.182 87.6778 124.304 87.7524 124.401C87.8564 124.488 87.9798 124.55 88.1124 124.581V124.811H85.2324V124.581C85.3657 124.552 85.4897 124.49 85.5924 124.401C85.6669 124.304 85.7026 124.182 85.6924 124.061V115.761C85.7026 115.645 85.6666 115.53 85.5924 115.441C85.4935 115.343 85.3683 115.277 85.2324 115.251V115.021H89.0124V115.251C88.9169 115.261 88.8288 115.306 88.7657 115.379C88.7027 115.451 88.6693 115.545 88.6724 115.641C88.6754 115.758 88.7099 115.872 88.7724 115.971L91.4424 121.041L94.1524 116.041C94.2462 115.895 94.3076 115.732 94.3324 115.561C94.3324 115.361 94.2124 115.251 93.9724 115.231V115.001H97.6724V115.231C97.5371 115.26 97.4126 115.325 97.3124 115.421C97.2424 115.512 97.207 115.626 97.2124 115.741V124.041C97.2073 124.162 97.2424 124.281 97.3124 124.381C97.4164 124.468 97.5398 124.53 97.6724 124.561V124.791H94.6724V124.561C94.8042 124.536 94.926 124.474 95.0224 124.381C95.0997 124.285 95.1388 124.164 95.1324 124.041V118.041L91.2624 124.821Z" fill="#840200"/>
<path d="M102.032 120.521V123.211H108.332C108.45 123.214 108.566 123.179 108.662 123.111C108.754 123.009 108.816 122.885 108.842 122.751H109.072V125.281H108.842C108.816 125.147 108.754 125.022 108.662 124.921C108.568 124.848 108.451 124.812 108.332 124.821H99.3923V124.591C99.5248 124.56 99.6482 124.498 99.7523 124.411C99.8269 124.314 99.8625 124.193 99.8523 124.071V115.781C99.8581 115.722 99.8523 115.662 99.8351 115.606C99.818 115.549 99.7898 115.496 99.7523 115.451C99.6521 115.355 99.5275 115.29 99.3923 115.261V115.031H108.112C108.171 115.037 108.231 115.031 108.287 115.014C108.344 114.996 108.397 114.968 108.442 114.931C108.538 114.83 108.603 114.706 108.632 114.571H108.862V117.101H108.632C108.606 116.967 108.54 116.845 108.442 116.751C108.397 116.711 108.345 116.681 108.288 116.663C108.232 116.644 108.172 116.636 108.112 116.641H101.992V118.971H105.992C106.11 118.974 106.226 118.939 106.322 118.871C106.418 118.77 106.483 118.646 106.512 118.511H106.742V120.981H106.512C106.481 120.849 106.416 120.728 106.322 120.631C106.229 120.555 106.112 120.516 105.992 120.521H102.032Z" fill="#840200"/>
<path d="M111.962 122.641C112.118 122.639 112.272 122.668 112.416 122.727C112.56 122.785 112.691 122.871 112.802 122.981C113.024 123.202 113.148 123.502 113.148 123.816C113.148 124.129 113.024 124.429 112.802 124.651C112.581 124.872 112.28 124.996 111.967 124.996C111.654 124.996 111.354 124.872 111.132 124.651C111.022 124.541 110.934 124.41 110.876 124.265C110.817 124.121 110.789 123.966 110.792 123.811C110.789 123.658 110.818 123.506 110.877 123.365C110.935 123.224 111.022 123.096 111.132 122.991C111.24 122.879 111.369 122.791 111.511 122.731C111.654 122.671 111.807 122.64 111.962 122.641Z" fill="#840200"/>
<path d="M127.882 115.861L126.712 118.161L126.512 118.051C126.517 118.011 126.517 117.97 126.512 117.931C126.512 117.771 126.372 117.601 126.092 117.411C125.209 116.809 124.161 116.497 123.092 116.521C122.638 116.512 122.186 116.576 121.752 116.711C121.491 116.791 121.257 116.939 121.072 117.141C120.907 117.305 120.814 117.528 120.812 117.761C120.812 118.127 121.032 118.377 121.472 118.511C121.96 118.619 122.454 118.693 122.952 118.731L124.082 118.841C124.63 118.892 125.172 118.993 125.702 119.141C126.095 119.252 126.467 119.428 126.802 119.661C127.138 119.895 127.404 120.217 127.572 120.591C127.763 120.969 127.862 121.387 127.862 121.811C127.87 122.485 127.631 123.139 127.192 123.651C126.693 124.191 126.041 124.568 125.322 124.731C124.671 124.908 123.998 124.996 123.322 124.991C121.988 124.982 120.673 124.664 119.482 124.061C119.329 123.981 119.168 123.917 119.002 123.871C118.891 123.899 118.788 123.954 118.702 124.031L118.502 123.931L119.562 121.521L119.772 121.621V121.721C119.777 121.836 119.807 121.949 119.86 122.051C119.914 122.153 119.99 122.242 120.082 122.311C120.506 122.649 120.997 122.895 121.522 123.031C122.121 123.222 122.744 123.323 123.372 123.331C123.933 123.344 124.489 123.235 125.002 123.011C125.236 122.902 125.438 122.737 125.592 122.531C125.734 122.355 125.811 122.136 125.812 121.911C125.814 121.754 125.763 121.602 125.669 121.477C125.575 121.353 125.443 121.262 125.292 121.221C124.811 121.074 124.314 120.983 123.812 120.951L122.712 120.841C122.186 120.794 121.662 120.72 121.142 120.621C120.822 120.547 120.513 120.433 120.222 120.281C119.793 120.059 119.444 119.709 119.222 119.281C118.936 118.734 118.832 118.11 118.925 117.5C119.019 116.89 119.305 116.326 119.742 115.891C120.68 115.109 121.886 114.725 123.102 114.821C123.691 114.815 124.279 114.879 124.852 115.011C125.536 115.192 126.205 115.426 126.852 115.711C127.016 115.786 127.187 115.843 127.362 115.881C127.495 115.865 127.618 115.805 127.712 115.711L127.882 115.861Z" fill="#840200"/>
<path d="M136.112 122.331H131.662L131.002 123.701C130.926 123.84 130.878 123.993 130.862 124.151C130.862 124.361 131.022 124.511 131.342 124.591V124.821H128.102V124.591C128.266 124.57 128.419 124.5 128.542 124.391C128.691 124.226 128.81 124.037 128.892 123.831L132.492 116.311C132.588 116.131 132.646 115.934 132.662 115.731C132.662 115.511 132.522 115.351 132.242 115.261V115.031H135.722V115.261C135.432 115.341 135.292 115.481 135.292 115.681C135.302 115.849 135.35 116.013 135.432 116.161L139.162 123.701C139.269 123.94 139.411 124.162 139.582 124.361C139.713 124.487 139.882 124.568 140.062 124.591V124.821H136.452V124.591C136.772 124.541 136.932 124.391 136.932 124.151C136.914 123.992 136.863 123.839 136.782 123.701L136.112 122.331ZM135.492 120.981L133.912 117.471L132.292 120.951L135.492 120.981Z" fill="#840200"/>
<path d="M144.472 121.971L147.062 116.231C147.154 116.053 147.211 115.86 147.232 115.661C147.232 115.451 147.072 115.321 146.762 115.261V115.031H150.112V115.261C149.95 115.269 149.794 115.333 149.672 115.441C149.504 115.688 149.364 115.953 149.252 116.231L145.852 123.551C145.751 123.742 145.68 123.948 145.642 124.161C145.642 124.411 145.792 124.551 146.092 124.591V124.821H142.712V124.591C143.022 124.591 143.172 124.401 143.172 124.151C143.128 123.941 143.054 123.739 142.952 123.551L139.562 116.231C139.445 115.954 139.301 115.689 139.132 115.441C139.01 115.333 138.855 115.269 138.692 115.261V115.031H142.172V115.261C141.862 115.321 141.702 115.451 141.702 115.661C141.719 115.859 141.773 116.053 141.862 116.231L144.472 121.971Z" fill="#840200"/>
<path d="M153.542 120.521V123.211H159.842C159.96 123.214 160.076 123.179 160.172 123.111C160.26 123.007 160.322 122.883 160.352 122.751H160.582V125.281H160.392C160.362 125.148 160.3 125.025 160.212 124.921C160.119 124.848 160.001 124.812 159.882 124.821H150.982V124.591C151.115 124.56 151.238 124.498 151.342 124.411C151.412 124.311 151.447 124.192 151.442 124.071V115.781C151.449 115.662 151.414 115.545 151.342 115.451C151.242 115.355 151.118 115.29 150.982 115.261V115.031H159.702C159.761 115.037 159.821 115.031 159.877 115.014C159.934 114.996 159.987 114.968 160.032 114.931C160.128 114.83 160.193 114.706 160.222 114.571H160.392V117.101H160.162C160.136 116.967 160.07 116.845 159.972 116.751C159.927 116.711 159.875 116.681 159.818 116.663C159.762 116.644 159.702 116.636 159.642 116.641H153.522V118.971H157.522C157.64 118.974 157.756 118.939 157.852 118.871C157.948 118.77 158.013 118.646 158.042 118.511H158.272V120.981H158.042C158.011 120.849 157.946 120.728 157.852 120.631C157.76 120.555 157.642 120.516 157.522 120.521H153.542Z" fill="#840200"/>
<path d="M171.812 124.821L168.192 118.061V124.061C168.187 124.182 168.222 124.301 168.292 124.401C168.396 124.488 168.52 124.55 168.652 124.581V124.811H165.782V124.581C165.913 124.553 166.034 124.491 166.132 124.401C166.207 124.304 166.242 124.182 166.232 124.061V115.761C166.242 115.645 166.206 115.53 166.132 115.441C166.037 115.343 165.915 115.277 165.782 115.251V115.021H169.552V115.251C169.458 115.263 169.371 115.309 169.308 115.381C169.246 115.453 169.211 115.545 169.212 115.641C169.22 115.757 169.254 115.87 169.312 115.971L171.982 121.041L174.692 116.041C174.786 115.895 174.847 115.732 174.872 115.561C174.872 115.361 174.752 115.251 174.512 115.231V115.001H178.222V115.231C178.085 115.255 177.96 115.321 177.862 115.421C177.788 115.51 177.752 115.625 177.762 115.741V124.041C177.752 124.162 177.788 124.284 177.862 124.381C177.963 124.473 178.088 124.535 178.222 124.561V124.791H175.162V124.561C175.295 124.539 175.417 124.476 175.512 124.381C175.589 124.285 175.629 124.164 175.622 124.041V118.041L171.812 124.821Z" fill="#840200"/>
<path d="M185.392 114.861C186.873 114.782 188.327 115.276 189.452 116.241C189.973 116.713 190.386 117.293 190.66 117.941C190.935 118.588 191.065 119.288 191.042 119.991C191.04 120.918 190.777 121.826 190.282 122.611C189.758 123.409 189.028 124.051 188.169 124.47C187.31 124.889 186.355 125.069 185.402 124.991C183.942 125.057 182.511 124.563 181.402 123.611C180.866 123.121 180.449 122.516 180.182 121.841C179.934 121.231 179.808 120.579 179.812 119.921C179.805 118.97 180.068 118.037 180.572 117.231C181.486 115.677 183.092 114.887 185.392 114.861ZM185.392 116.521C184.539 116.494 183.707 116.79 183.062 117.351C182.712 117.681 182.432 118.081 182.241 118.523C182.05 118.966 181.952 119.443 181.952 119.926C181.952 120.408 182.05 120.885 182.241 121.328C182.432 121.771 182.712 122.17 183.062 122.501C183.726 123.037 184.554 123.33 185.407 123.33C186.261 123.33 187.089 123.037 187.752 122.501C188.122 122.165 188.412 121.752 188.602 121.291C188.772 120.871 188.86 120.423 188.862 119.971C188.886 119.479 188.798 118.987 188.606 118.534C188.414 118.08 188.122 117.676 187.752 117.351C187.092 116.797 186.254 116.502 185.392 116.521Z" fill="#840200"/>
<path d="M194.962 118.111V124.111C194.952 124.232 194.988 124.354 195.062 124.451C195.166 124.538 195.29 124.6 195.422 124.631V124.861H192.542V124.631C192.675 124.6 192.798 124.538 192.902 124.451C192.977 124.354 193.012 124.232 193.002 124.111V115.811C193.012 115.695 192.976 115.58 192.902 115.491C192.802 115.395 192.677 115.33 192.542 115.301V115.071H195.872V115.301C195.662 115.301 195.562 115.461 195.562 115.631C195.581 115.777 195.652 115.912 195.762 116.011L201.162 121.631V115.771C201.172 115.655 201.136 115.54 201.062 115.451C200.967 115.353 200.845 115.287 200.712 115.261V115.031H203.582V115.261C203.447 115.29 203.322 115.355 203.222 115.451C203.152 115.542 203.117 115.656 203.122 115.771V124.071C203.117 124.192 203.152 124.311 203.222 124.411C203.326 124.498 203.45 124.56 203.582 124.591V124.821H200.502V124.591C200.702 124.591 200.802 124.451 200.802 124.281C200.802 124.111 200.682 124.021 200.452 123.781L194.962 118.111Z" fill="#840200"/>
<path d="M207.942 120.521V123.211H214.242C214.361 123.218 214.478 123.182 214.572 123.111C214.668 123.01 214.733 122.886 214.762 122.751H214.992V125.281H214.762C214.733 125.145 214.668 125.021 214.572 124.921C214.527 124.883 214.474 124.855 214.417 124.838C214.361 124.821 214.301 124.815 214.242 124.821H205.392V124.591C205.525 124.56 205.648 124.498 205.752 124.411C205.822 124.311 205.857 124.192 205.852 124.071V115.781C205.859 115.662 205.824 115.545 205.752 115.451C205.652 115.355 205.527 115.29 205.392 115.261V115.031H214.112C214.231 115.039 214.348 115.004 214.442 114.931C214.538 114.83 214.603 114.706 214.632 114.571H214.862V117.101H214.632C214.606 116.967 214.54 116.845 214.442 116.751C214.349 116.675 214.232 116.636 214.112 116.641H207.982V118.971H211.982C212.1 118.974 212.216 118.939 212.312 118.871C212.375 118.747 212.403 118.609 212.392 118.471H212.622V120.941H212.392C212.364 120.81 212.302 120.69 212.212 120.591C212.119 120.515 212.002 120.476 211.882 120.481L207.942 120.521Z" fill="#840200"/>
<path d="M221.932 120.721V124.071C221.926 124.194 221.965 124.315 222.042 124.411C222.141 124.501 222.262 124.563 222.392 124.591V124.821H219.322V124.591C219.458 124.56 219.584 124.498 219.692 124.411C219.77 124.315 219.809 124.194 219.802 124.071V120.721L216.632 116.271C216.447 115.992 216.232 115.734 215.992 115.501C215.832 115.369 215.638 115.286 215.432 115.261V115.031H219.302V115.261C218.982 115.261 218.822 115.461 218.822 115.701C218.879 115.908 218.978 116.102 219.112 116.271L220.882 118.891L222.692 116.271C222.836 116.107 222.939 115.912 222.992 115.701C222.994 115.646 222.983 115.591 222.96 115.541C222.938 115.491 222.904 115.446 222.862 115.411C222.764 115.326 222.642 115.273 222.512 115.261V115.031H226.302V115.261C226.096 115.284 225.901 115.368 225.742 115.501C225.5 115.731 225.285 115.99 225.102 116.271L221.932 120.721Z" fill="#840200"/>
</g>
<defs>
<filter id="filter0_d_269_1437" x="-4" y="0" width="260" height="152" filterUnits="userSpaceOnUse" color-interpolation-filters="sRGB">
<feFlood flood-opacity="0" result="BackgroundImageFix"/>
<feColorMatrix in="SourceAlpha" type="matrix" values="0 0 0 0 0 0 0 0 0 0 0 0 0 0 0 0 0 0 127 0" result="hardAlpha"/>
<feOffset dy="4"/>
<feGaussianBlur stdDeviation="2"/>
<feColorMatrix type="matrix" values="0 0 0 0 0 0 0 0 0 0 0 0 0 0 0 0 0 0 0.25 0"/>
<feBlend mode="normal" in2="BackgroundImageFix" result="effect1_dropShadow_269_1437"/>
<feBlend mode="normal" in="SourceGraphic" in2="effect1_dropShadow_269_1437" result="shape"/>
</filter>
</defs>
</svg>
