<svg width="143" height="114" viewBox="0 0 143 114" fill="none" xmlns="http://www.w3.org/2000/svg">
<g filter="url(#filter0_d_135_1040)">
<rect x="16" y="24" width="103" height="66" rx="24" fill="white"/>
<rect x="16.5" y="24.5" width="102" height="65" rx="23.5" stroke="#979797" stroke-opacity="0.1"/>
</g>
<g clip-path="url(#clip0_135_1040)">
<path d="M71.6665 25.8335C68.6342 25.8335 66.1666 23.3659 66.1666 20.3336C66.1666 17.3013 68.6342 14.8337 71.6665 14.8337H75.3329V7.50051C75.3329 4.46822 72.8653 2.00056 69.833 2.00056H50.125C49.5217 2.00056 48.9571 2.29731 48.6144 2.79414C48.2733 3.29096 48.1964 3.92373 48.4126 4.48635L61.7042 39.3195C61.9738 40.0309 62.6556 40.5002 63.4166 40.5002H69.833C72.8653 40.5002 75.3329 38.0325 75.3329 35.0002V25.8335H71.6665Z" fill="#F1B213"/>
<path d="M80.131 29.361C79.4472 29.0766 78.9997 28.4076 78.9997 27.6667V22.1668H71.6665C70.6544 22.1668 69.833 21.3457 69.833 20.3336C69.833 19.3215 70.6544 18.5004 71.6665 18.5004H78.9997V13.0004C78.9997 12.2596 79.4472 11.5905 80.131 11.3062C80.8164 11.0222 81.605 11.18 82.129 11.7043L89.4625 19.0375C90.1792 19.7542 90.1792 20.913 89.4625 21.6297L82.129 28.9632C81.605 29.4872 80.8164 29.645 80.131 29.361Z" fill="#00B6FF"/>
<path d="M61.8509 5.85394L50.8346 2.18183C48.3485 1.41747 46 3.25268 46 5.66696V38.6666C46 40.2343 46.9973 41.6331 48.4824 42.1464L59.4967 45.8185C59.9019 45.943 60.2742 46.0001 60.6666 46.0001C62.6888 46.0001 64.333 44.3556 64.333 42.3334V9.3337C64.333 7.76637 63.3357 6.36755 61.8509 5.85394Z" fill="#FDC53A"/>
</g>
<path d="M32.3073 73.508C31.514 74.0027 30.6226 74.25 29.6333 74.25C28.5693 74.25 27.7106 73.8953 27.0573 73.186C26.4693 72.5513 26.1753 71.7347 26.1753 70.736C26.1753 69.6627 26.4926 68.8087 27.1273 68.174C27.4073 67.894 27.7293 67.6747 28.0933 67.516C28.4573 67.3573 29.008 67.1987 29.7453 67.04C30.4453 66.8907 30.9586 66.746 31.2853 66.606C31.6213 66.466 31.9106 66.2653 32.1533 66.004C31.388 64.5667 30.4453 63.848 29.3253 63.848C28.5786 63.848 27.7946 64.2493 26.9733 65.052V63.932C27.7573 63.1387 28.5926 62.742 29.4793 62.742C30.1886 62.742 30.8793 63.0033 31.5513 63.526C32.2233 64.0487 32.816 64.786 33.3293 65.738V66.354C33.0213 66.8207 32.648 67.1753 32.2093 67.418C31.7706 67.6513 31.0893 67.866 30.1653 68.062C29.0733 68.2953 28.3453 68.5893 27.9813 68.944C27.5333 69.3733 27.3093 69.9753 27.3093 70.75C27.3093 71.534 27.566 72.1407 28.0793 72.57C28.5086 72.934 29.0593 73.116 29.7313 73.116C30.758 73.1067 31.6166 72.8593 32.3073 72.374V73.508ZM29.7313 71.352C29.3206 71.352 29.1153 71.1373 29.1153 70.708C29.1153 70.2973 29.3206 70.092 29.7313 70.092C30.142 70.092 30.3473 70.2973 30.3473 70.708C30.3473 71.1373 30.142 71.352 29.7313 71.352ZM38.4579 68.552C38.1032 68.692 37.6692 68.762 37.1559 68.762C36.3252 68.762 35.6719 68.4493 35.1959 67.824C34.7946 67.292 34.5939 66.6247 34.5939 65.822C34.5939 64.8327 34.8599 64.058 35.3919 63.498C35.8679 62.994 36.4932 62.742 37.2679 62.742C38.0612 62.742 38.6726 62.9893 39.1019 63.484C39.4846 63.9227 39.6759 64.4967 39.6759 65.206V68.258C39.6759 69.3127 39.4006 70.148 38.8499 70.764C38.3272 71.3427 37.6319 71.632 36.7639 71.632C36.1852 71.632 35.6392 71.4967 35.1259 71.226V70.162C35.6206 70.4233 36.1106 70.554 36.5959 70.554C37.1466 70.554 37.5852 70.3767 37.9119 70.022C38.2386 69.6767 38.4206 69.1867 38.4579 68.552ZM38.4579 65.262C38.4579 64.3287 38.0612 63.862 37.2679 63.862C36.8012 63.862 36.4326 64.0347 36.1619 64.38C35.9006 64.7253 35.7699 65.1967 35.7699 65.794C35.7699 66.382 35.8959 66.8533 36.1479 67.208C36.4092 67.5533 36.7592 67.726 37.1979 67.726C37.8139 67.726 38.2339 67.5533 38.4579 67.208V65.262ZM46.4009 67.866H47.3249V69H46.2609C45.7849 69 45.3743 68.9067 45.0289 68.72C44.9449 69.644 44.6229 70.3813 44.0629 70.932C43.5496 71.436 42.9056 71.688 42.1309 71.688C41.5709 71.688 41.0249 71.548 40.4929 71.268V70.218C40.9689 70.4793 41.4449 70.61 41.9209 70.61C42.5183 70.61 42.9849 70.4093 43.3209 70.008C43.6569 69.6067 43.8249 69.0513 43.8249 68.342V63.568L45.0289 62.924V62.938L45.0429 62.924V66.746C45.1269 67.4927 45.5796 67.866 46.4009 67.866ZM50.7283 61.23C50.2709 61.23 50.0423 60.9967 50.0423 60.53C50.0423 60.0727 50.2709 59.844 50.7283 59.844C51.1763 59.844 51.4003 60.0727 51.4003 60.53C51.4003 60.9967 51.1763 61.23 50.7283 61.23ZM55.6143 67.866H56.5243V69H55.6003C54.8443 69 54.2376 68.916 53.7803 68.748C53.3229 68.5707 52.8983 68.2627 52.5063 67.824C51.3303 68.608 49.9583 69 48.3903 69H46.4862V67.866H48.4043C50.2989 67.866 51.7969 67.2407 52.8983 65.99C52.1236 64.562 51.1809 63.848 50.0703 63.848C49.3143 63.848 48.5349 64.2493 47.7323 65.052V63.932C48.5163 63.1387 49.3469 62.742 50.2243 62.742C50.9429 62.742 51.6383 63.0033 52.3103 63.526C52.9823 64.0393 53.5749 64.7767 54.0883 65.738V66.354C53.7989 66.718 53.5236 67.012 53.2623 67.236C53.7663 67.656 54.5503 67.866 55.6143 67.866ZM55.6874 69V67.866H56.4294C57.4001 67.866 57.8854 67.3573 57.8854 66.34V60.614L59.1034 59.97V66.354C59.1034 67.1847 58.8561 67.8427 58.3614 68.328C57.8948 68.776 57.2834 69 56.5274 69H55.6874ZM61.6194 69V60.614L62.8234 59.97V69H61.6194ZM77.2297 67.866H78.1537V69H77.0897C76.5857 69 76.133 68.888 75.7317 68.664C75.601 69.6253 75.167 70.3813 74.4297 70.932C73.7764 71.4173 72.969 71.66 72.0077 71.66C70.757 71.66 69.791 71.24 69.1097 70.4C68.587 69.7467 68.3257 68.9673 68.3257 68.062C68.3257 67.2687 68.517 66.592 68.8997 66.032L70.1037 65.766C69.6744 66.4287 69.4597 67.152 69.4597 67.936C69.4597 68.7107 69.707 69.3453 70.2017 69.84C70.659 70.2973 71.261 70.526 72.0077 70.526C72.857 70.526 73.5104 70.274 73.9677 69.77C74.3597 69.3407 74.5557 68.79 74.5557 68.118V60.614L75.7737 59.97V66.466C75.7737 67.3993 76.259 67.866 77.2297 67.866ZM82.1883 67.866H83.1123V69H82.0483C81.2737 69 80.6623 68.7527 80.2143 68.258C79.7663 68.7527 79.155 69 78.3803 69H77.3163V67.866H78.2403C79.155 67.866 79.6123 67.3993 79.6123 66.466V63.568L80.8163 62.924V66.466C80.8163 67.3993 81.2737 67.866 82.1883 67.866ZM78.8423 70.4C79.2903 70.4 79.5143 70.6333 79.5143 71.1C79.5143 71.5573 79.2903 71.786 78.8423 71.786C78.385 71.786 78.1563 71.5573 78.1563 71.1C78.1563 70.6333 78.385 70.4 78.8423 70.4ZM80.6203 70.4C81.0683 70.4 81.2923 70.6333 81.2923 71.1C81.2923 71.5573 81.0683 71.786 80.6203 71.786C80.163 71.786 79.9343 71.5573 79.9343 71.1C79.9343 70.6333 80.163 70.4 80.6203 70.4ZM91.3935 67.866H92.3035V69H91.3795C90.6235 69 90.0169 68.916 89.5595 68.748C89.1022 68.5707 88.6775 68.2627 88.2855 67.824C87.1095 68.608 85.7375 69 84.1695 69H82.2655V67.866H84.1835C86.0782 67.866 87.5762 67.2407 88.6775 65.99C87.9029 64.562 86.9602 63.848 85.8495 63.848C85.0935 63.848 84.3142 64.2493 83.5115 65.052V63.932C84.2955 63.1387 85.1262 62.742 86.0035 62.742C86.7222 62.742 87.4175 63.0033 88.0895 63.526C88.7615 64.0393 89.3542 64.7767 89.8675 65.738V66.354C89.5782 66.718 89.3029 67.012 89.0415 67.236C89.5455 67.656 90.3295 67.866 91.3935 67.866ZM86.8155 70.4C87.2635 70.4 87.4875 70.6287 87.4875 71.086C87.4875 71.5527 87.2635 71.786 86.8155 71.786C86.3582 71.786 86.1295 71.5527 86.1295 71.086C86.1295 70.6287 86.3582 70.4 86.8155 70.4ZM91.4667 69V67.866H92.7267C93.6321 67.866 94.0847 67.3993 94.0847 66.466V64.506L95.2887 63.862V66.466C95.2887 67.3993 95.7461 67.866 96.6607 67.866H97.3047C98.2194 67.866 98.6767 67.3993 98.6767 66.466V64.03L99.8807 63.4V66.466C99.8807 67.3993 100.333 67.866 101.239 67.866H101.897C102.811 67.866 103.269 67.3993 103.269 66.466V63.568L104.473 62.924V66.34C104.473 67.3573 104.958 67.866 105.929 67.866H107.091V69H105.831C104.991 69 104.351 68.7153 103.913 68.146C103.521 68.706 102.909 68.9907 102.079 69H101.113C100.291 69 99.6801 68.7247 99.2787 68.174C98.8774 68.7153 98.2801 68.9907 97.4867 69H96.5207C95.7181 69 95.1067 68.7247 94.6867 68.174C94.2854 68.7247 93.6741 69 92.8527 69H91.4667ZM107.324 61.23C106.867 61.23 106.638 60.9967 106.638 60.53C106.638 60.0727 106.867 59.844 107.324 59.844C107.772 59.844 107.996 60.0727 107.996 60.53C107.996 60.9967 107.772 61.23 107.324 61.23ZM109.102 61.23C108.645 61.23 108.416 60.9967 108.416 60.53C108.416 60.0727 108.645 59.844 109.102 59.844C109.55 59.844 109.774 60.0727 109.774 60.53C109.774 60.9967 109.55 61.23 109.102 61.23ZM106.246 69V67.866H107.17C108.085 67.866 108.542 67.3993 108.542 66.466V63.568L109.746 62.924V66.508C109.746 67.3013 109.508 67.9267 109.032 68.384C108.593 68.7947 108.019 69 107.31 69H106.246Z" fill="#323232"/>
<defs>
<filter id="filter0_d_135_1040" x="-8" y="0" width="151" height="114" filterUnits="userSpaceOnUse" color-interpolation-filters="sRGB">
<feFlood flood-opacity="0" result="BackgroundImageFix"/>
<feColorMatrix in="SourceAlpha" type="matrix" values="0 0 0 0 0 0 0 0 0 0 0 0 0 0 0 0 0 0 127 0" result="hardAlpha"/>
<feOffset/>
<feGaussianBlur stdDeviation="12"/>
<feComposite in2="hardAlpha" operator="out"/>
<feColorMatrix type="matrix" values="0 0 0 0 0 0 0 0 0 0 0 0 0 0 0 0 0 0 0.05 0"/>
<feBlend mode="normal" in2="BackgroundImageFix" result="effect1_dropShadow_135_1040"/>
<feBlend mode="normal" in="SourceGraphic" in2="effect1_dropShadow_135_1040" result="shape"/>
</filter>
<clipPath id="clip0_135_1040">
<rect width="44" height="44" fill="white" transform="translate(46 2)"/>
</clipPath>
</defs>
</svg>
