<svg width="144" height="114" viewBox="0 0 144 114" fill="none" xmlns="http://www.w3.org/2000/svg">
<g filter="url(#filter0_d_133_966)">
<rect x="24" y="24" width="103" height="66" rx="24" fill="white"/>
<rect x="24.5" y="24.5" width="102" height="65" rx="23.5" stroke="#979797" stroke-opacity="0.1"/>
</g>
<path d="M85.2275 10.6859H84.2683C84.2853 10.7777 84.2953 10.8719 84.2953 10.9685V26.9431C84.2953 27.3353 83.9744 27.6564 83.582 27.6564H67.6756C67.2834 27.6564 66.9623 27.3355 66.9623 26.9431V10.9685C66.9623 10.8719 66.9725 10.7777 66.9893 10.6859H66.0301C65.3761 10.6859 64.8411 11.221 64.8411 11.875V46.3813C64.8411 47.0353 65.3761 47.5703 66.0301 47.5703H85.2273C85.8813 47.5703 86.4164 47.0353 86.4164 46.3813V11.875C86.4165 11.221 85.8815 10.6859 85.2275 10.6859Z" fill="#FDC53A"/>
<path d="M80.6044 4.51064C79.777 4.75384 79.5783 5.46094 78.4218 5.46094C77.0251 5.46094 77.0251 4.42969 75.6286 4.42969C74.2322 4.42969 74.2322 5.46094 72.8358 5.46094C71.6796 5.46094 71.4808 4.75384 70.6537 4.51064C70.3481 4.42092 70.0432 4.65862 70.0432 4.97711V12.293H81.2151V4.97694C81.2149 4.65863 80.9098 4.42075 80.6044 4.51064Z" fill="#70D6F9"/>
<path d="M80.6044 4.51064C79.777 4.75384 79.5783 5.46094 78.4218 5.46094C77.0251 5.46094 77.0251 4.42969 75.6286 4.42969C74.2322 4.42969 74.2322 5.46094 72.8358 5.46094C71.6796 5.46094 71.4808 4.75384 70.6537 4.51064C70.3481 4.42092 70.0432 4.65862 70.0432 4.97711V12.293H81.2151V4.97694C81.2149 4.65863 80.9098 4.42075 80.6044 4.51064Z" fill="#EDF4FC"/>
<path d="M66.9698 10.8243C66.9653 10.8719 66.9624 10.9199 66.9624 10.9685V26.9431C66.9624 27.3353 67.2833 27.6564 67.6757 27.6564H83.5822C83.9744 27.6564 84.2955 27.3355 84.2955 26.9431V10.9685C84.2955 10.9597 84.2943 10.9513 84.2941 10.9427C84.2934 10.903 84.2917 10.8635 84.2881 10.8245C84.2835 10.7777 84.2767 10.7317 84.2683 10.6861C84.1343 9.95977 83.4951 9.40478 82.7314 9.40478H81.2148V12.293H70.0429V9.40461H68.5263C67.7625 9.40461 67.1233 9.95977 66.9894 10.6865C66.9811 10.7318 66.9744 10.7777 66.9698 10.8243Z" fill="#FDC53A"/>
<path d="M71.1937 30.0391H68.8923C68.3907 30.0391 67.9805 30.4493 67.9805 30.9509V31.7054C67.9805 32.2069 68.3907 32.6172 68.8923 32.6172H71.1937C71.6952 32.6172 72.1055 32.2069 72.1055 31.7054V30.9509C72.1055 30.4493 71.6952 30.0391 71.1937 30.0391Z" fill="#EDF4FC"/>
<path d="M76.7796 30.0391H74.4782C73.9767 30.0391 73.5664 30.4493 73.5664 30.9509V31.7054C73.5664 32.2069 73.9767 32.6172 74.4782 32.6172H76.7796C77.2811 32.6172 77.6914 32.2069 77.6914 31.7054V30.9509C77.6914 30.4493 77.2811 30.0391 76.7796 30.0391Z" fill="#EDF4FC"/>
<path d="M82.3655 30.0391H80.0641C79.5626 30.0391 79.1523 30.4493 79.1523 30.9509V31.7054C79.1523 32.2069 79.5626 32.6172 80.0641 32.6172H82.3655C82.8671 32.6172 83.2773 32.2069 83.2773 31.7054V30.9509C83.2773 30.4493 82.8671 30.0391 82.3655 30.0391Z" fill="#EDF4FC"/>
<path d="M71.1937 34.1641H68.8923C68.3907 34.1641 67.9805 34.5743 67.9805 35.0759V35.8304C67.9805 36.3319 68.3907 36.7422 68.8923 36.7422H71.1937C71.6952 36.7422 72.1055 36.3319 72.1055 35.8304V35.0759C72.1055 34.5743 71.6952 34.1641 71.1937 34.1641Z" fill="#EDF4FC"/>
<path d="M76.7796 34.1641H74.4782C73.9767 34.1641 73.5664 34.5743 73.5664 35.0759V35.8304C73.5664 36.3319 73.9767 36.7422 74.4782 36.7422H76.7796C77.2811 36.7422 77.6914 36.3319 77.6914 35.8304V35.0759C77.6914 34.5743 77.2811 34.1641 76.7796 34.1641Z" fill="#EDF4FC"/>
<path d="M82.3655 34.1641H80.0641C79.5626 34.1641 79.1523 34.5743 79.1523 35.0759V35.8304C79.1523 36.3319 79.5626 36.7422 80.0641 36.7422H82.3655C82.8671 36.7422 83.2773 36.3319 83.2773 35.8304V35.0759C83.2773 34.5743 82.8671 34.1641 82.3655 34.1641Z" fill="#EDF4FC"/>
<path d="M71.1937 38.2891H68.8923C68.3907 38.2891 67.9805 38.6993 67.9805 39.2009V39.9554C67.9805 40.4569 68.3907 40.8672 68.8923 40.8672H71.1937C71.6952 40.8672 72.1055 40.4569 72.1055 39.9554V39.2009C72.1055 38.6993 71.6952 38.2891 71.1937 38.2891Z" fill="#EDF4FC"/>
<path d="M76.7796 38.2891H74.4782C73.9767 38.2891 73.5664 38.6993 73.5664 39.2009V39.9554C73.5664 40.4569 73.9767 40.8672 74.4782 40.8672H76.7796C77.2811 40.8672 77.6914 40.4569 77.6914 39.9554V39.2009C77.6914 38.6993 77.2811 38.2891 76.7796 38.2891Z" fill="#EDF4FC"/>
<path d="M82.3655 38.2891H80.0641C79.5626 38.2891 79.1523 38.6993 79.1523 39.2009V39.9554C79.1523 40.4569 79.5626 40.8672 80.0641 40.8672H82.3655C82.8671 40.8672 83.2773 40.4569 83.2773 39.9554V39.2009C83.2773 38.6993 82.8671 38.2891 82.3655 38.2891Z" fill="#EDF4FC"/>
<path d="M71.1937 42.4141H68.8923C68.3907 42.4141 67.9805 42.8243 67.9805 43.3259V44.0804C67.9805 44.5819 68.3907 44.9922 68.8923 44.9922H71.1937C71.6952 44.9922 72.1055 44.5819 72.1055 44.0804V43.3259C72.1055 42.8243 71.6952 42.4141 71.1937 42.4141Z" fill="#FC657E"/>
<path d="M76.7796 42.4141H74.4782C73.9767 42.4141 73.5664 42.8243 73.5664 43.3259V44.0804C73.5664 44.5819 73.9767 44.9922 74.4782 44.9922H76.7796C77.2811 44.9922 77.6914 44.5819 77.6914 44.0804V43.3259C77.6914 42.8243 77.2811 42.4141 76.7796 42.4141Z" fill="#DEF5FF"/>
<path d="M82.3655 42.4141H80.0641C79.5626 42.4141 79.1523 42.8243 79.1523 43.3259V44.0804C79.1523 44.5819 79.5626 44.9922 80.0641 44.9922H82.3655C82.8671 44.9922 83.2773 44.5819 83.2773 44.0804V43.3259C83.2773 42.8243 82.8671 42.4141 82.3655 42.4141Z" fill="#87D147"/>
<path d="M82.0704 14.5588H69.1872C68.8893 14.5588 68.6458 14.8023 68.6458 15.1002V23.7393C68.6458 24.037 68.8895 24.2807 69.1872 24.2807H82.0704C82.3683 24.2807 82.6118 24.0372 82.6118 23.7393V15.1002C82.612 14.8025 82.3683 14.5588 82.0704 14.5588Z" fill="#DEF5FF"/>
<path d="M89.1175 17.4657H86.4165V41.0655H89.1175C89.6866 41.0655 90.1524 40.5999 90.1524 40.0307V18.5006C90.1524 17.9315 89.6868 17.4657 89.1175 17.4657Z" fill="#FDC53A"/>
<path d="M62.2908 18.9284C61.973 18.871 61.7141 19.1083 61.7141 19.4009C61.7141 19.6209 61.869 19.8293 62.1017 19.8733C62.4121 19.9311 62.6782 19.6943 62.6782 19.4009C62.6783 19.1685 62.5102 18.9698 62.2908 18.9284Z" fill="#87D147"/>
<path d="M87.7283 6.89712C87.4105 6.83972 87.1516 7.07708 87.1516 7.36961C87.1516 7.65062 87.3981 7.90001 87.7283 7.84209C87.9429 7.80153 88.1158 7.60542 88.1158 7.36961C88.1158 7.13723 87.9477 6.93855 87.7283 6.89712Z" fill="#DEF5FF"/>
<path d="M91.7783 11.8937C91.0917 11.7658 90.5505 11.2356 90.4198 10.5629C90.4133 10.529 90.366 10.529 90.3595 10.5629C90.2289 11.2356 89.6878 11.7658 89.001 11.8937C88.9665 11.9001 88.9665 11.9463 89.001 11.9528C89.6876 12.0807 90.2289 12.6109 90.3595 13.2837C90.366 13.3175 90.4133 13.3175 90.4198 13.2837C90.5505 12.6109 91.0915 12.0807 91.7783 11.9528C91.8127 11.9463 91.8127 11.9001 91.7783 11.8937Z" fill="#3CAADC"/>
<path d="M61.3535 36.0624H60.9977V35.7066C60.9977 35.4404 60.7819 35.2245 60.5156 35.2245C60.2494 35.2245 60.0335 35.4404 60.0335 35.7066V36.0624H59.6779C59.4117 36.0624 59.1958 36.2783 59.1958 36.5445C59.1958 36.8108 59.4117 37.0266 59.6779 37.0266H60.0335V37.3824C60.0335 37.6487 60.2494 37.8645 60.5156 37.8645C60.7819 37.8645 60.9977 37.6487 60.9977 37.3824V37.0266H61.3535C61.6198 37.0266 61.8356 36.8108 61.8356 36.5445C61.8355 36.2783 61.6198 36.0624 61.3535 36.0624Z" fill="#DEF5FF"/>
<path d="M61.7714 42.3666C62.09 42.4242 62.348 42.1858 62.348 41.8941C62.348 41.6279 62.1333 41.412 61.8659 41.412C61.6036 41.412 61.3838 41.6283 61.3838 41.8941C61.3838 42.1236 61.5488 42.3247 61.7714 42.3666Z" fill="#EF4460"/>
<path d="M85.2277 48H66.0303C65.1378 48 64.4116 47.2738 64.4116 46.3813V11.875C64.4116 10.9824 65.1378 10.2563 66.0303 10.2563H66.9896C67.1171 10.2563 67.2383 10.313 67.3199 10.4111C67.4016 10.5091 67.4354 10.6385 67.412 10.7641C67.3988 10.8363 67.3923 10.9032 67.3923 10.9683V26.9427C67.3923 27.0966 67.522 27.2262 67.6757 27.2262H83.5822C83.736 27.2262 83.8656 27.0964 83.8656 26.9427V10.9685C83.8656 10.9032 83.8591 10.8363 83.8459 10.7643C83.8225 10.6388 83.8565 10.5094 83.938 10.4113C84.0196 10.3131 84.1408 10.2564 84.2683 10.2564H85.2276C86.1201 10.2564 86.8463 10.9826 86.8463 11.8751V46.3814C86.8465 47.2738 86.1203 48 85.2277 48ZM66.0303 11.1156C65.6115 11.1156 65.271 11.4561 65.271 11.875V46.3813C65.271 46.8001 65.6115 47.1406 66.0303 47.1406H85.2276C85.6464 47.1406 85.9869 46.8001 85.9869 46.3813V11.875C85.9869 11.4561 85.6464 11.1156 85.2276 11.1156H84.725V26.9429C84.725 27.573 84.2123 28.0857 83.5822 28.0857H67.6759C67.0458 28.0857 66.5331 27.573 66.5331 26.9429V11.1156H66.0303Z" fill="black"/>
<path d="M81.6955 12.7227H69.5625C69.3251 12.7227 69.1328 12.5303 69.1328 12.293C69.1328 12.0556 69.3251 11.8633 69.5625 11.8633H81.6955C81.9329 11.8633 82.1252 12.0556 82.1252 12.293C82.1252 12.5303 81.9329 12.7227 81.6955 12.7227Z" fill="black"/>
<path d="M81.2148 12.7227H70.043C69.8056 12.7227 69.6133 12.5303 69.6133 12.293V4.97711C69.6133 4.68973 69.751 4.41525 69.9814 4.24286C70.2117 4.07064 70.5005 4.01788 70.7746 4.09848C71.1753 4.21639 71.4513 4.42006 71.6947 4.59984C72.0211 4.84081 72.2789 5.03125 72.8356 5.03125C73.3923 5.03125 73.6503 4.84081 73.9768 4.59967C74.3386 4.33258 74.7888 4 75.6284 4C76.4682 4 76.9185 4.33258 77.2803 4.59967C77.6067 4.84064 77.8647 5.03125 78.4217 5.03125C78.9784 5.03125 79.2362 4.84081 79.563 4.59967C79.8065 4.41989 80.0824 4.21605 80.4832 4.09831C80.7573 4.0177 81.0462 4.07047 81.2764 4.24269C81.5069 4.41525 81.6445 4.68973 81.6445 4.97694V12.293C81.6445 12.5303 81.4522 12.7227 81.2148 12.7227ZM70.4727 11.8633H80.7852V4.97711C80.7852 4.95219 80.7704 4.93758 80.7614 4.93088C80.7439 4.91781 80.7303 4.92125 80.7255 4.9228C80.7255 4.9228 80.7255 4.9228 80.7253 4.9228C80.4705 4.99773 80.2864 5.13369 80.0732 5.29113C79.7116 5.55805 79.2613 5.89062 78.4217 5.89062C77.5819 5.89062 77.1316 5.55805 76.7698 5.29095C76.4433 5.04981 76.1853 4.85938 75.6284 4.85938C75.0717 4.85938 74.8139 5.04981 74.4873 5.29095C74.1255 5.55822 73.6752 5.89062 72.8356 5.89062C71.996 5.89062 71.5457 5.55805 71.184 5.29095C70.9711 5.13369 70.787 4.99773 70.5323 4.9228C70.5271 4.92125 70.5139 4.91781 70.4964 4.93088C70.4874 4.93741 70.4727 4.95219 70.4727 4.97711V11.8633ZM80.6043 4.51064H80.6061H80.6043Z" fill="black"/>
<path d="M81.2148 12.7227H70.043C69.8056 12.7227 69.6133 12.5303 69.6133 12.293V4.97711C69.6133 4.68973 69.751 4.41525 69.9814 4.24286C70.2117 4.07064 70.5005 4.01788 70.7746 4.09848C71.1753 4.21639 71.4513 4.42006 71.6947 4.59984C72.0211 4.84081 72.2789 5.03125 72.8356 5.03125C73.3923 5.03125 73.6503 4.84081 73.9768 4.59967C74.3386 4.33258 74.7888 4 75.6284 4C76.4682 4 76.9185 4.33258 77.2803 4.59967C77.6067 4.84064 77.8647 5.03125 78.4217 5.03125C78.9784 5.03125 79.2362 4.84081 79.563 4.59967C79.8065 4.41989 80.0824 4.21605 80.4832 4.09831C80.7573 4.0177 81.0462 4.07047 81.2764 4.24269C81.5069 4.41525 81.6445 4.68973 81.6445 4.97694V12.293C81.6445 12.5303 81.4522 12.7227 81.2148 12.7227ZM70.4727 11.8633H80.7852V4.97711C80.7852 4.95219 80.7704 4.93758 80.7614 4.93088C80.7439 4.91781 80.7303 4.92125 80.7255 4.9228C80.7255 4.9228 80.7255 4.9228 80.7253 4.9228C80.4705 4.99773 80.2864 5.13369 80.0732 5.29113C79.7116 5.55805 79.2613 5.89062 78.4217 5.89062C77.5819 5.89062 77.1316 5.55805 76.7698 5.29095C76.4433 5.04981 76.1853 4.85938 75.6284 4.85938C75.0717 4.85938 74.8139 5.04981 74.4873 5.29095C74.1255 5.55822 73.6752 5.89062 72.8356 5.89062C71.996 5.89062 71.5457 5.55805 71.184 5.29095C70.9711 5.13369 70.787 4.99773 70.5323 4.9228C70.5271 4.92125 70.5139 4.91781 70.4964 4.93088C70.4874 4.93741 70.4727 4.95219 70.4727 4.97711V11.8633ZM80.6043 4.51064H80.6061H80.6043Z" fill="black"/>
<path d="M76.5742 8.66933H72.4492C72.2119 8.66933 72.0195 8.477 72.0195 8.23964C72.0195 8.00228 72.2119 7.80995 72.4492 7.80995H76.5742C76.8116 7.80995 77.0039 8.00228 77.0039 8.23964C77.0039 8.477 76.8116 8.66933 76.5742 8.66933Z" fill="black"/>
<path d="M78.9805 8.66933H78.4648C78.2275 8.66933 78.0352 8.477 78.0352 8.23964C78.0352 8.00228 78.2275 7.80995 78.4648 7.80995H78.9805C79.2178 7.80995 79.4102 8.00228 79.4102 8.23964C79.4102 8.477 79.2178 8.66933 78.9805 8.66933Z" fill="black"/>
<path d="M76.5742 10.5025H72.4492C72.2119 10.5025 72.0195 10.3102 72.0195 10.0729C72.0195 9.8355 72.2119 9.64317 72.4492 9.64317H76.5742C76.8116 9.64317 77.0039 9.8355 77.0039 10.0729C77.0039 10.3102 76.8116 10.5025 76.5742 10.5025Z" fill="black"/>
<path d="M78.9805 10.5025H78.4648C78.2275 10.5025 78.0352 10.3102 78.0352 10.0729C78.0352 9.8355 78.2275 9.64317 78.4648 9.64317H78.9805C79.2178 9.64317 79.4102 9.8355 79.4102 10.0729C79.4102 10.3102 79.2178 10.5025 78.9805 10.5025Z" fill="black"/>
<path d="M77.6055 26.3438H73.4805C73.2431 26.3438 73.0508 26.1514 73.0508 25.9141C73.0508 25.6767 73.2431 25.4844 73.4805 25.4844H77.6055C77.8428 25.4844 78.0352 25.6767 78.0352 25.9141C78.0352 26.1514 77.8428 26.3438 77.6055 26.3438Z" fill="black"/>
<path d="M89.1175 41.4952H86.4165C86.1791 41.4952 85.9868 41.3029 85.9868 41.0655V17.4657C85.9868 17.2284 86.1791 17.036 86.4165 17.036H89.1175C89.925 17.036 90.5821 17.6929 90.5821 18.5006V40.0307C90.5821 40.8383 89.9252 41.4952 89.1175 41.4952ZM86.8464 40.6358H89.1177C89.4513 40.6358 89.7229 40.3643 89.7229 40.0307V18.5006C89.7229 18.167 89.4515 17.8954 89.1177 17.8954H86.8464V40.6358Z" fill="black"/>
<path d="M80.6992 17.0625H80.1836C79.9462 17.0625 79.7539 16.8702 79.7539 16.6328C79.7539 16.3955 79.9462 16.2031 80.1836 16.2031H80.6992C80.9366 16.2031 81.1289 16.3955 81.1289 16.6328C81.1289 16.8702 80.9366 17.0625 80.6992 17.0625Z" fill="black"/>
<path d="M80.6992 19.7266H80.1836C79.9462 19.7266 79.7539 19.5342 79.7539 19.2969C79.7539 19.0595 79.9462 18.8672 80.1836 18.8672H80.6992C80.9366 18.8672 81.1289 19.0595 81.1289 19.2969C81.1289 19.5342 80.9366 19.7266 80.6992 19.7266Z" fill="black"/>
<path d="M80.6992 22.3906H80.1836C79.9462 22.3906 79.7539 22.1983 79.7539 21.9609C79.7539 21.7236 79.9462 21.5312 80.1836 21.5312H80.6992C80.9366 21.5312 81.1289 21.7236 81.1289 21.9609C81.1289 22.1983 80.9366 22.3906 80.6992 22.3906Z" fill="black"/>
<path d="M71.0742 17.0625H70.5586C70.3212 17.0625 70.1289 16.8702 70.1289 16.6328C70.1289 16.3955 70.3212 16.2031 70.5586 16.2031H71.0742C71.3116 16.2031 71.5039 16.3955 71.5039 16.6328C71.5039 16.8702 71.3116 17.0625 71.0742 17.0625Z" fill="black"/>
<path d="M71.0742 19.7266H70.5586C70.3212 19.7266 70.1289 19.5342 70.1289 19.2969C70.1289 19.0595 70.3212 18.8672 70.5586 18.8672H71.0742C71.3116 18.8672 71.5039 19.0595 71.5039 19.2969C71.5039 19.5342 71.3116 19.7266 71.0742 19.7266Z" fill="black"/>
<path d="M71.0742 22.3906H70.5586C70.3212 22.3906 70.1289 22.1983 70.1289 21.9609C70.1289 21.7236 70.3212 21.5312 70.5586 21.5312H71.0742C71.3116 21.5312 71.5039 21.7236 71.5039 21.9609C71.5039 22.1983 71.3116 22.3906 71.0742 22.3906Z" fill="black"/>
<path d="M83.5821 28.0859H67.6758C67.0457 28.0859 66.533 27.5733 66.533 26.9431V10.9685C66.533 10.9066 66.5366 10.8454 66.5421 10.7851C66.5421 10.7837 66.5422 10.7825 66.5424 10.7813C66.5483 10.7234 66.5565 10.6662 66.5668 10.6098C66.7416 9.66208 67.5658 8.97509 68.5265 8.97509H70.0432C70.2805 8.97509 70.4728 9.16742 70.4728 9.40478V11.8633H80.7854V9.40461C80.7854 9.16725 80.9777 8.97492 81.215 8.97492H82.7317C83.6923 8.97492 84.5164 9.66173 84.6909 10.6079C84.7015 10.665 84.7098 10.7227 84.7158 10.7812C84.7208 10.8356 84.7232 10.8862 84.7239 10.9372C84.7246 10.9379 84.7252 10.953 84.7252 10.9685V26.9429C84.7251 27.5732 84.2122 28.0859 83.5821 28.0859ZM67.3973 10.8655C67.3942 10.8994 67.3922 10.9336 67.3922 10.9685V26.9429C67.3922 27.0967 67.5219 27.2263 67.6756 27.2263H83.5821C83.7359 27.2263 83.8655 27.0966 83.8655 26.9429V10.9792C83.8648 10.9692 83.8645 10.9603 83.8641 10.9508C83.8638 10.9193 83.8624 10.891 83.86 10.8628C83.8569 10.8324 83.8519 10.7978 83.8456 10.7638C83.7462 10.2251 83.2775 9.8343 82.7315 9.8343H81.6446V12.293C81.6446 12.5303 81.4522 12.7227 81.2149 12.7227H70.043C69.8056 12.7227 69.6133 12.5303 69.6133 12.293V9.8343H68.5264C67.98 9.8343 67.5113 10.2253 67.4121 10.7641C67.4059 10.7968 67.4009 10.8308 67.3973 10.8655Z" fill="black"/>
<path d="M88.2617 41.4688C88.0244 41.4688 87.832 41.2764 87.832 41.0391V17.4922C87.832 17.2548 88.0244 17.0625 88.2617 17.0625C88.4991 17.0625 88.6914 17.2548 88.6914 17.4922V41.0391C88.6914 41.2764 88.4991 41.4688 88.2617 41.4688Z" fill="black"/>
<path d="M71.1937 33.0469H68.8923C68.1525 33.0469 67.5508 32.4451 67.5508 31.7054V30.9507C67.5508 30.2109 68.1525 29.6092 68.8923 29.6092H71.1938C71.9336 29.6092 72.5353 30.2109 72.5353 30.9507V31.7054C72.5352 32.4451 71.9334 33.0469 71.1937 33.0469ZM68.8923 30.4688C68.6264 30.4688 68.4102 30.685 68.4102 30.9509V31.7056C68.4102 31.9715 68.6264 32.1877 68.8923 32.1877H71.1938C71.4597 32.1877 71.676 31.9715 71.676 31.7056V30.9509C71.676 30.685 71.4597 30.4688 71.1938 30.4688H68.8923Z" fill="black"/>
<path d="M76.7795 33.0469H74.478C73.7382 33.0469 73.1365 32.4451 73.1365 31.7054V30.9507C73.1365 30.2109 73.7382 29.6092 74.478 29.6092H76.7795C77.5193 29.6092 78.121 30.2109 78.121 30.9507V31.7054C78.121 32.4451 77.5193 33.0469 76.7795 33.0469ZM74.4781 30.4688C74.2122 30.4688 73.996 30.685 73.996 30.9509V31.7056C73.996 31.9715 74.2122 32.1877 74.4781 32.1877H76.7797C77.0456 32.1877 77.2618 31.9715 77.2618 31.7056V30.9509C77.2618 30.685 77.0456 30.4688 76.7797 30.4688H74.4781Z" fill="black"/>
<path d="M82.3655 33.0469H80.0639C79.3241 33.0469 78.7224 32.4451 78.7224 31.7054V30.9507C78.7224 30.2109 79.3241 29.6092 80.0639 29.6092H82.3655C83.1052 29.6092 83.707 30.2109 83.707 30.9507V31.7054C83.707 32.4451 83.1052 33.0469 82.3655 33.0469ZM80.0641 30.4688C79.7982 30.4688 79.582 30.685 79.582 30.9509V31.7056C79.582 31.9715 79.7982 32.1877 80.0641 32.1877H82.3656C82.6315 32.1877 82.8478 31.9715 82.8478 31.7056V30.9509C82.8478 30.685 82.6315 30.4688 82.3656 30.4688H80.0641Z" fill="black"/>
<path d="M71.1937 37.1719H68.8923C68.1525 37.1719 67.5508 36.5701 67.5508 35.8304V35.0757C67.5508 34.3359 68.1525 33.7342 68.8923 33.7342H71.1938C71.9336 33.7342 72.5353 34.3359 72.5353 35.0757V35.8304C72.5352 36.5701 71.9334 37.1719 71.1937 37.1719ZM68.8923 34.5938C68.6264 34.5938 68.4102 34.81 68.4102 35.0759V35.8306C68.4102 36.0965 68.6264 36.3127 68.8923 36.3127H71.1938C71.4597 36.3127 71.676 36.0965 71.676 35.8306V35.0759C71.676 34.81 71.4597 34.5938 71.1938 34.5938H68.8923Z" fill="black"/>
<path d="M76.7795 37.1719H74.478C73.7382 37.1719 73.1365 36.5701 73.1365 35.8304V35.0757C73.1365 34.3359 73.7382 33.7342 74.478 33.7342H76.7795C77.5193 33.7342 78.121 34.3359 78.121 35.0757V35.8304C78.121 36.5701 77.5193 37.1719 76.7795 37.1719ZM74.4781 34.5938C74.2122 34.5938 73.996 34.81 73.996 35.0759V35.8306C73.996 36.0965 74.2122 36.3127 74.4781 36.3127H76.7797C77.0456 36.3127 77.2618 36.0965 77.2618 35.8306V35.0759C77.2618 34.81 77.0456 34.5938 76.7797 34.5938H74.4781Z" fill="black"/>
<path d="M82.3655 37.1719H80.0639C79.3241 37.1719 78.7224 36.5701 78.7224 35.8304V35.0757C78.7224 34.3359 79.3241 33.7342 80.0639 33.7342H82.3655C83.1052 33.7342 83.707 34.3359 83.707 35.0757V35.8304C83.707 36.5701 83.1052 37.1719 82.3655 37.1719ZM80.0641 34.5938C79.7982 34.5938 79.582 34.81 79.582 35.0759V35.8306C79.582 36.0965 79.7982 36.3127 80.0641 36.3127H82.3656C82.6315 36.3127 82.8478 36.0965 82.8478 35.8306V35.0759C82.8478 34.81 82.6315 34.5938 82.3656 34.5938H80.0641Z" fill="black"/>
<path d="M71.1937 41.2969H68.8923C68.1525 41.2969 67.5508 40.6951 67.5508 39.9554V39.2007C67.5508 38.4609 68.1525 37.8592 68.8923 37.8592H71.1938C71.9336 37.8592 72.5353 38.4609 72.5353 39.2007V39.9554C72.5352 40.6951 71.9334 41.2969 71.1937 41.2969ZM68.8923 38.7188C68.6264 38.7188 68.4102 38.935 68.4102 39.2009V39.9556C68.4102 40.2215 68.6264 40.4377 68.8923 40.4377H71.1938C71.4597 40.4377 71.676 40.2215 71.676 39.9556V39.2009C71.676 38.935 71.4597 38.7188 71.1938 38.7188H68.8923Z" fill="black"/>
<path d="M76.7795 41.2969H74.478C73.7382 41.2969 73.1365 40.6951 73.1365 39.9554V39.2007C73.1365 38.4609 73.7382 37.8592 74.478 37.8592H76.7795C77.5193 37.8592 78.121 38.4609 78.121 39.2007V39.9554C78.121 40.6951 77.5193 41.2969 76.7795 41.2969ZM74.4781 38.7188C74.2122 38.7188 73.996 38.935 73.996 39.2009V39.9556C73.996 40.2215 74.2122 40.4377 74.4781 40.4377H76.7797C77.0456 40.4377 77.2618 40.2215 77.2618 39.9556V39.2009C77.2618 38.935 77.0456 38.7188 76.7797 38.7188H74.4781Z" fill="black"/>
<path d="M82.3655 41.2969H80.0639C79.3241 41.2969 78.7224 40.6951 78.7224 39.9554V39.2007C78.7224 38.4609 79.3241 37.8592 80.0639 37.8592H82.3655C83.1052 37.8592 83.707 38.4609 83.707 39.2007V39.9554C83.707 40.6951 83.1052 41.2969 82.3655 41.2969ZM80.0641 38.7188C79.7982 38.7188 79.582 38.935 79.582 39.2009V39.9556C79.582 40.2215 79.7982 40.4377 80.0641 40.4377H82.3656C82.6315 40.4377 82.8478 40.2215 82.8478 39.9556V39.2009C82.8478 38.935 82.6315 38.7188 82.3656 38.7188H80.0641Z" fill="black"/>
<path d="M71.1937 45.4219H68.8923C68.1525 45.4219 67.5508 44.8201 67.5508 44.0804V43.3257C67.5508 42.5859 68.1525 41.9842 68.8923 41.9842H71.1938C71.9336 41.9842 72.5353 42.5859 72.5353 43.3257V44.0804C72.5352 44.8201 71.9334 45.4219 71.1937 45.4219ZM68.8923 42.8438C68.6264 42.8438 68.4102 43.06 68.4102 43.3259V44.0806C68.4102 44.3465 68.6264 44.5627 68.8923 44.5627H71.1938C71.4597 44.5627 71.676 44.3465 71.676 44.0806V43.3259C71.676 43.06 71.4597 42.8438 71.1938 42.8438H68.8923Z" fill="black"/>
<path d="M76.7795 45.4219H74.478C73.7382 45.4219 73.1365 44.8201 73.1365 44.0804V43.3257C73.1365 42.5859 73.7382 41.9842 74.478 41.9842H76.7795C77.5193 41.9842 78.121 42.5859 78.121 43.3257V44.0804C78.121 44.8201 77.5193 45.4219 76.7795 45.4219ZM74.4781 42.8438C74.2122 42.8438 73.996 43.06 73.996 43.3259V44.0806C73.996 44.3465 74.2122 44.5627 74.4781 44.5627H76.7797C77.0456 44.5627 77.2618 44.3465 77.2618 44.0806V43.3259C77.2618 43.06 77.0456 42.8438 76.7797 42.8438H74.4781Z" fill="black"/>
<path d="M82.3655 45.4219H80.0639C79.3241 45.4219 78.7224 44.8201 78.7224 44.0804V43.3257C78.7224 42.5859 79.3241 41.9842 80.0639 41.9842H82.3655C83.1052 41.9842 83.707 42.5859 83.707 43.3257V44.0804C83.707 44.8201 83.1052 45.4219 82.3655 45.4219ZM80.0641 42.8438C79.7982 42.8438 79.582 43.06 79.582 43.3259V44.0806C79.582 44.3465 79.7982 44.5627 80.0641 44.5627H82.3656C82.6315 44.5627 82.8478 44.3465 82.8478 44.0806V43.3259C82.8478 43.06 82.6315 42.8438 82.3656 42.8438H80.0641Z" fill="black"/>
<path d="M82.0706 24.7104H69.1872C68.6518 24.7104 68.2161 24.2749 68.2161 23.7395V15.1002C68.2161 14.5648 68.6518 14.1293 69.1872 14.1293H82.0704C82.6058 14.1293 83.0415 14.5648 83.0415 15.1002V23.7393C83.0417 24.2747 82.606 24.7104 82.0706 24.7104ZM69.1872 14.9887C69.1265 14.9887 69.0754 15.0399 69.0754 15.1002V23.7395C69.0754 23.8 69.1267 23.851 69.1872 23.851H82.0704C82.1311 23.851 82.1821 23.7998 82.1821 23.7393V15.1002C82.1821 15.0397 82.1309 14.9887 82.0704 14.9887H69.1872Z" fill="black"/>
<path d="M48.6694 68.664C47.7828 69.196 47.2461 69.56 47.0594 69.756C46.6861 70.12 46.4994 70.5727 46.4994 71.114C46.4994 71.7113 46.7048 72.192 47.1154 72.556C47.5261 72.9293 48.0581 73.116 48.7114 73.116C49.7381 73.1067 50.5968 72.8593 51.2874 72.374V73.508C50.4848 74.0027 49.6074 74.25 48.6554 74.25C47.6194 74.25 46.7888 73.9093 46.1634 73.228C45.6221 72.6493 45.3514 71.9353 45.3514 71.086C45.3514 70.4513 45.5194 69.91 45.8554 69.462C46.1914 69.0233 46.7841 68.5613 47.6334 68.076C46.8681 67.516 46.0841 66.6387 45.2814 65.444V64.828C45.7388 64.1747 46.2754 63.666 46.8914 63.302C47.5074 62.9287 48.1328 62.742 48.7674 62.742C49.3928 62.742 50.0181 62.9333 50.6434 63.316C51.2688 63.6893 51.8054 64.2027 52.2534 64.856V65.444C51.7774 66.1627 50.9888 66.9607 49.8874 67.838C50.0928 67.8567 50.2561 67.866 50.3774 67.866H54.0734L54.0874 69H50.2794C49.7288 69 49.1921 68.888 48.6694 68.664ZM46.4014 65.15C47.2414 66.298 48.0068 67.0587 48.6974 67.432C49.6028 66.816 50.4148 66.046 51.1334 65.122C50.4428 64.282 49.6541 63.8573 48.7674 63.848C47.8714 63.848 47.0828 64.282 46.4014 65.15ZM58.118 67.866H59.042V69H57.978C57.2033 69 56.592 68.7527 56.144 68.258C55.696 68.7527 55.0847 69 54.31 69H53.246V67.866H54.17C55.0847 67.866 55.542 67.3993 55.542 66.466V63.568L56.746 62.924V66.466C56.746 67.3993 57.2033 67.866 58.118 67.866ZM54.772 70.4C55.22 70.4 55.444 70.6333 55.444 71.1C55.444 71.5573 55.22 71.786 54.772 71.786C54.3147 71.786 54.086 71.5573 54.086 71.1C54.086 70.6333 54.3147 70.4 54.772 70.4ZM56.55 70.4C56.998 70.4 57.222 70.6333 57.222 71.1C57.222 71.5573 56.998 71.786 56.55 71.786C56.0927 71.786 55.864 71.5573 55.864 71.1C55.864 70.6333 56.0927 70.4 56.55 70.4ZM63.0672 67.866H63.9912V69H62.9272C62.1526 69 61.5412 68.7527 61.0932 68.258C60.6452 68.7527 60.0339 69 59.2592 69H58.1952V67.866H59.1192C60.0339 67.866 60.4912 67.3993 60.4912 66.466V63.568L61.6952 62.924V66.466C61.6952 67.3993 62.1526 67.866 63.0672 67.866ZM61.0092 70.4C61.4572 70.4 61.6812 70.6287 61.6812 71.086C61.6812 71.5527 61.4572 71.786 61.0092 71.786C60.5519 71.786 60.3232 71.5527 60.3232 71.086C60.3232 70.6287 60.5519 70.4 61.0092 70.4ZM63.1445 69V67.866H63.8865C64.8571 67.866 65.3425 67.3573 65.3425 66.34V60.614L66.5605 59.97V66.354C66.5605 67.1847 66.3131 67.8427 65.8185 68.328C65.3518 68.776 64.7405 69 63.9845 69H63.1445ZM69.0764 69V60.614L70.2804 59.97V69H69.0764ZM77.2807 61.09C76.8234 61.09 76.5947 60.8567 76.5947 60.39C76.5947 59.9327 76.8234 59.704 77.2807 59.704C77.7287 59.704 77.9527 59.9327 77.9527 60.39C77.9527 60.8567 77.7287 61.09 77.2807 61.09ZM79.0587 61.09C78.6014 61.09 78.3727 60.8567 78.3727 60.39C78.3727 59.9327 78.6014 59.704 79.0587 59.704C79.5067 59.704 79.7307 59.9327 79.7307 60.39C79.7307 60.8567 79.5067 61.09 79.0587 61.09ZM81.6627 67.866H82.5867V69H81.5227C80.5614 69 79.8707 68.6453 79.4507 67.936C79.0027 68.3653 78.4474 68.58 77.7847 68.58C76.9634 68.58 76.3101 68.272 75.8247 67.656C75.4234 67.1333 75.2227 66.494 75.2227 65.738C75.2227 64.8327 75.4981 64.1047 76.0487 63.554C76.5154 63.078 77.0847 62.84 77.7567 62.84C78.2701 62.84 78.7134 62.9707 79.0867 63.232V62.63L80.3047 61.986V66.466C80.3047 67.3993 80.7574 67.866 81.6627 67.866ZM79.0867 64.534C78.7414 64.1513 78.3167 63.96 77.8127 63.96C77.4021 63.96 77.0661 64.128 76.8047 64.464C76.5434 64.7907 76.4127 65.22 76.4127 65.752C76.4127 66.2933 76.5434 66.7273 76.8047 67.054C77.0661 67.3807 77.4067 67.544 77.8267 67.544C78.3494 67.544 78.7787 67.3293 79.1147 66.9C79.0961 66.732 79.0867 66.6013 79.0867 66.508V64.534ZM94.2679 67.866H95.1919V69H94.1279C93.3812 69 92.7979 68.7807 92.3779 68.342C91.9952 68.7807 91.4539 69 90.7539 69H81.7519V67.866H84.3559L84.3979 67.712V60.614L85.6019 59.97V65.094C86.6659 63.526 87.9865 62.742 89.5639 62.742C90.6185 62.742 91.4632 63.1107 92.0979 63.848C92.6392 64.4733 92.9099 65.2433 92.9099 66.158V66.494C92.9099 67.4087 93.3625 67.866 94.2679 67.866ZM91.6919 66.55V66.158C91.6919 65.43 91.4679 64.8513 91.0199 64.422C90.6372 64.0487 90.1565 63.862 89.5779 63.862C88.6165 63.862 87.7485 64.296 86.9739 65.164C86.3952 65.8173 85.9379 66.634 85.6019 67.614V67.866H90.6559C91.0572 67.866 91.3279 67.7727 91.4679 67.586C91.6172 67.3993 91.6919 67.054 91.6919 66.55ZM97.8293 61.328C97.372 61.328 97.1433 61.0947 97.1433 60.628C97.1433 60.1707 97.372 59.942 97.8293 59.942C98.2773 59.942 98.5013 60.1707 98.5013 60.628C98.5013 61.0947 98.2773 61.328 97.8293 61.328ZM99.6073 61.328C99.15 61.328 98.9213 61.0947 98.9213 60.628C98.9213 60.1707 99.15 59.942 99.6073 59.942C100.055 59.942 100.279 60.1707 100.279 60.628C100.279 61.0947 100.055 61.328 99.6073 61.328ZM100.475 67.866H103.079V69H99.6633C99.2993 69 98.982 68.9673 98.7113 68.902C98.45 68.9673 98.1327 69 97.7593 69H94.3573V67.866H96.9613C96.3827 67.2033 96.0933 66.4707 96.0933 65.668C96.0933 64.7533 96.35 64.0253 96.8633 63.484C97.33 62.9893 97.946 62.742 98.7113 62.742C99.5887 62.742 100.265 63.0593 100.741 63.694C101.143 64.2167 101.343 64.8747 101.343 65.668C101.343 66.4707 101.054 67.2033 100.475 67.866ZM98.7253 67.74C99.1547 67.5907 99.5047 67.32 99.7753 66.928C100.046 66.5267 100.181 66.088 100.181 65.612C100.181 65.0707 100.046 64.646 99.7753 64.338C99.514 64.0207 99.1593 63.862 98.7113 63.862C98.2633 63.862 97.904 64.0207 97.6333 64.338C97.372 64.6553 97.2413 65.08 97.2413 65.612C97.2413 66.0787 97.3813 66.5127 97.6613 66.914C97.9413 67.3153 98.296 67.5907 98.7253 67.74ZM105.102 61.23C104.645 61.23 104.416 60.9967 104.416 60.53C104.416 60.0727 104.645 59.844 105.102 59.844C105.55 59.844 105.774 60.0727 105.774 60.53C105.774 60.9967 105.55 61.23 105.102 61.23ZM102.246 69V67.866H103.17C104.085 67.866 104.542 67.3993 104.542 66.466V63.568L105.746 62.924V66.508C105.746 67.3013 105.508 67.9267 105.032 68.384C104.593 68.7947 104.019 69 103.31 69H102.246Z" fill="#323232"/>
<defs>
<filter id="filter0_d_133_966" x="0" y="0" width="151" height="114" filterUnits="userSpaceOnUse" color-interpolation-filters="sRGB">
<feFlood flood-opacity="0" result="BackgroundImageFix"/>
<feColorMatrix in="SourceAlpha" type="matrix" values="0 0 0 0 0 0 0 0 0 0 0 0 0 0 0 0 0 0 127 0" result="hardAlpha"/>
<feOffset/>
<feGaussianBlur stdDeviation="12"/>
<feComposite in2="hardAlpha" operator="out"/>
<feColorMatrix type="matrix" values="0 0 0 0 0 0 0 0 0 0 0 0 0 0 0 0 0 0 0.05 0"/>
<feBlend mode="normal" in2="BackgroundImageFix" result="effect1_dropShadow_133_966"/>
<feBlend mode="normal" in="SourceGraphic" in2="effect1_dropShadow_133_966" result="shape"/>
</filter>
</defs>
</svg>
