<svg width="148" height="114" viewBox="0 0 148 114" fill="none" xmlns="http://www.w3.org/2000/svg">
<g filter="url(#filter0_d_83_312)">
<rect x="24" y="24" width="100" height="66" rx="24" fill="white"/>
<rect x="24.5" y="24.5" width="99" height="65" rx="23.5" stroke="#979797" stroke-opacity="0.1"/>
</g>
<path d="M59.5625 41.1875C59.5625 40.4582 59.2728 39.7587 58.757 39.243C58.2413 38.7272 57.5418 38.4375 56.8125 38.4375C56.0832 38.4375 55.3837 38.7272 54.868 39.243C54.3522 39.7587 54.0625 40.4582 54.0625 41.1875V20.5625C54.0625 19.8332 54.3522 19.1337 54.868 18.618C55.3837 18.1022 56.0832 17.8125 56.8125 17.8125C57.5418 17.8125 58.2413 18.1022 58.757 18.618C59.2728 19.1337 59.5625 19.8332 59.5625 20.5625V41.1875Z" fill="#EE8700"/>
<path d="M56.8125 38.4375C56.0832 38.4375 55.3837 38.7272 54.868 39.243C54.3522 39.7587 54.0625 40.4582 54.0625 41.1875C54.0625 41.9168 54.3522 42.6163 54.868 43.132C55.3837 43.6478 56.0832 43.9375 56.8125 43.9375H91.1875V41.1875H59.5625C59.5625 40.4582 59.2728 39.7587 58.757 39.243C58.2413 38.7272 57.5418 38.4375 56.8125 38.4375Z" fill="#FF5023"/>
<path d="M59.5625 20.5625V21.25V41.1875H91.1875H93.9375V20.5625H59.5625Z" fill="#FFEB99"/>
<path d="M85 28.8125H89.125H89.8125V20.5625V10.9375H84.3125V20.5625V28.8125H85Z" fill="#FDC53A"/>
<path d="M84.3125 8.1875H89.8125V10.9375H84.3125V8.1875Z" fill="#D1D3D4"/>
<path d="M89.8125 6.8125C89.8125 6.08315 89.5228 5.38368 89.007 4.86796C88.4913 4.35223 87.7918 4.0625 87.0625 4.0625C86.3332 4.0625 85.6337 4.35223 85.118 4.86796C84.6022 5.38368 84.3125 6.08315 84.3125 6.8125V8.1875H89.8125V6.8125Z" fill="#FDC53A"/>
<path d="M85 31.5625H85.6875H88.4375H89.125V28.8125H85V31.5625Z" fill="#A7A9AC"/>
<path d="M69.875 41.1875H93.9375V20.5625C93.9375 31.9626 83.1754 41.1875 69.875 41.1875Z" fill="#FFDE55"/>
<path d="M87.0625 37.0625L88.4375 31.5625H85.6875L87.0625 37.0625Z" fill="#FF9811"/>
<path d="M93.9375 19.875H90.5V6.8125C90.5 5.90082 90.1378 5.02648 89.4932 4.38182C88.8485 3.73716 87.9742 3.375 87.0625 3.375C86.1508 3.375 85.2765 3.73716 84.6318 4.38182C83.9872 5.02648 83.625 5.90082 83.625 6.8125V10.25C83.0785 10.2516 82.5548 10.4695 82.1684 10.8559C81.782 11.2423 81.5641 11.766 81.5625 12.3125V17.8125C81.5625 17.9948 81.6349 18.1697 81.7639 18.2986C81.8928 18.4276 82.0677 18.5 82.25 18.5C82.4323 18.5 82.6072 18.4276 82.7361 18.2986C82.8651 18.1697 82.9375 17.9948 82.9375 17.8125V12.3125C82.9375 12.1302 83.0099 11.9553 83.1389 11.8264C83.2678 11.6974 83.4427 11.625 83.625 11.625V19.875H60.1813C60.0116 19.0396 59.5376 18.297 58.8513 17.7914C58.1649 17.2858 57.3152 17.0533 56.467 17.1389C55.6189 17.2246 54.8328 17.6224 54.2614 18.255C53.6901 18.8877 53.3741 19.71 53.375 20.5625V41.1875C53.375 42.0992 53.7372 42.9735 54.3818 43.6182C55.0265 44.2628 55.9008 44.625 56.8125 44.625H91.1875C91.3698 44.625 91.5447 44.5526 91.6736 44.4236C91.8026 44.2947 91.875 44.1198 91.875 43.9375V41.875H93.9375C94.1198 41.875 94.2947 41.8026 94.4236 41.6736C94.5526 41.5447 94.625 41.3698 94.625 41.1875V20.5625C94.625 20.3802 94.5526 20.2053 94.4236 20.0764C94.2947 19.9474 94.1198 19.875 93.9375 19.875ZM85 6.8125C85 6.26549 85.2173 5.74089 85.6041 5.35409C85.9909 4.9673 86.5155 4.75 87.0625 4.75C87.6095 4.75 88.1341 4.9673 88.5209 5.35409C88.9077 5.74089 89.125 6.26549 89.125 6.8125V7.5H85V6.8125ZM85 8.875H89.125V10.25H85V8.875ZM85 11.625H89.125V28.125H85V11.625ZM85.6875 30.875V29.5H88.4375V30.875H85.6875ZM87.5575 32.25L87.0625 34.23L86.5675 32.25H87.5575ZM54.75 20.5625C54.75 20.0155 54.9673 19.4909 55.3541 19.1041C55.7409 18.7173 56.2655 18.5 56.8125 18.5C57.3595 18.5 57.8841 18.7173 58.2709 19.1041C58.6577 19.4909 58.875 20.0155 58.875 20.5625V38.4581C58.2854 37.9992 57.5596 37.75 56.8125 37.75C56.0654 37.75 55.3396 37.9992 54.75 38.4581V20.5625ZM90.5 43.25H56.8125C56.4046 43.25 56.0058 43.129 55.6666 42.9024C55.3275 42.6758 55.0631 42.3537 54.907 41.9768C54.7509 41.5999 54.7101 41.1852 54.7896 40.7851C54.8692 40.385 55.0656 40.0175 55.3541 39.7291C55.6425 39.4406 56.01 39.2442 56.4101 39.1646C56.8102 39.085 57.2249 39.1259 57.6018 39.282C57.9787 39.4381 58.3008 39.7025 58.5274 40.0416C58.754 40.3808 58.875 40.7796 58.875 41.1875C58.875 41.3698 58.9474 41.5447 59.0764 41.6736C59.2053 41.8026 59.3802 41.875 59.5625 41.875H90.5V43.25ZM93.25 40.5H60.25V21.25H83.625V28.8125C83.625 28.9948 83.6974 29.1697 83.8264 29.2986C83.9553 29.4276 84.1302 29.5 84.3125 29.5V31.5625C84.3125 31.7448 84.3849 31.9197 84.5139 32.0486C84.6428 32.1776 84.8177 32.25 85 32.25H85.1513L86.3956 37.2275C86.4329 37.3762 86.5187 37.5081 86.6396 37.6024C86.7604 37.6967 86.9092 37.7479 87.0625 37.7479C87.2158 37.7479 87.3646 37.6967 87.4854 37.6024C87.6063 37.5081 87.6921 37.3762 87.7294 37.2275L88.9738 32.25H89.125C89.3073 32.25 89.4822 32.1776 89.6111 32.0486C89.7401 31.9197 89.8125 31.7448 89.8125 31.5625V29.5C89.9948 29.5 90.1697 29.4276 90.2986 29.2986C90.4276 29.1697 90.5 28.9948 90.5 28.8125V21.25H93.25V40.5Z" fill="#231F20"/>
<path d="M65.75 28.8125C66.5894 28.8125 67.125 29.2195 67.125 29.5C67.125 29.6823 67.1974 29.8572 67.3264 29.9861C67.4553 30.1151 67.6302 30.1875 67.8125 30.1875C67.9948 30.1875 68.1697 30.1151 68.2986 29.9861C68.4276 29.8572 68.5 29.6823 68.5 29.5C68.5 28.5231 67.6344 27.7324 66.4375 27.5062V26.75C66.4375 26.5677 66.3651 26.3928 66.2361 26.2639C66.1072 26.1349 65.9323 26.0625 65.75 26.0625C65.5677 26.0625 65.3928 26.1349 65.2639 26.2639C65.1349 26.3928 65.0625 26.5677 65.0625 26.75V27.5062C63.8656 27.7311 63 28.5217 63 29.5C63 30.6564 64.2079 31.5625 65.75 31.5625C66.5894 31.5625 67.125 31.9695 67.125 32.25C67.125 32.5305 66.5894 32.9375 65.75 32.9375C64.9106 32.9375 64.375 32.5305 64.375 32.25C64.375 32.0677 64.3026 31.8928 64.1736 31.7639C64.0447 31.6349 63.8698 31.5625 63.6875 31.5625C63.5052 31.5625 63.3303 31.6349 63.2014 31.7639C63.0724 31.8928 63 32.0677 63 32.25C63 33.2269 63.8656 34.0176 65.0625 34.2438V35C65.0625 35.1823 65.1349 35.3572 65.2639 35.4861C65.3928 35.6151 65.5677 35.6875 65.75 35.6875C65.9323 35.6875 66.1072 35.6151 66.2361 35.4861C66.3651 35.3572 66.4375 35.1823 66.4375 35V34.2438C67.6344 34.0189 68.5 33.2283 68.5 32.25C68.5 31.0936 67.2921 30.1875 65.75 30.1875C64.9106 30.1875 64.375 29.7805 64.375 29.5C64.375 29.2195 64.9106 28.8125 65.75 28.8125Z" fill="#231F20"/>
<path d="M71.9375 25.375H81.5625C81.7448 25.375 81.9197 25.3026 82.0486 25.1736C82.1776 25.0447 82.25 24.8698 82.25 24.6875C82.25 24.5052 82.1776 24.3303 82.0486 24.2014C81.9197 24.0724 81.7448 24 81.5625 24H71.9375C71.7552 24 71.5803 24.0724 71.4514 24.2014C71.3224 24.3303 71.25 24.5052 71.25 24.6875C71.25 24.8698 71.3224 25.0447 71.4514 25.1736C71.5803 25.3026 71.7552 25.375 71.9375 25.375Z" fill="#231F20"/>
<path d="M71.9375 28.125H81.5625C81.7448 28.125 81.9197 28.0526 82.0486 27.9236C82.1776 27.7947 82.25 27.6198 82.25 27.4375C82.25 27.2552 82.1776 27.0803 82.0486 26.9514C81.9197 26.8224 81.7448 26.75 81.5625 26.75H71.9375C71.7552 26.75 71.5803 26.8224 71.4514 26.9514C71.3224 27.0803 71.25 27.2552 71.25 27.4375C71.25 27.6198 71.3224 27.7947 71.4514 27.9236C71.5803 28.0526 71.7552 28.125 71.9375 28.125Z" fill="#231F20"/>
<path d="M71.9375 35H83.625C83.8073 35 83.9822 34.9276 84.1111 34.7986C84.2401 34.6697 84.3125 34.4948 84.3125 34.3125C84.3125 34.1302 84.2401 33.9553 84.1111 33.8264C83.9822 33.6974 83.8073 33.625 83.625 33.625H71.9375C71.7552 33.625 71.5803 33.6974 71.4514 33.8264C71.3224 33.9553 71.25 34.1302 71.25 34.3125C71.25 34.4948 71.3224 34.6697 71.4514 34.7986C71.5803 34.9276 71.7552 35 71.9375 35Z" fill="#231F20"/>
<path d="M84.3125 36.375H71.9375C71.7552 36.375 71.5803 36.4474 71.4514 36.5764C71.3224 36.7053 71.25 36.8802 71.25 37.0625C71.25 37.2448 71.3224 37.4197 71.4514 37.5486C71.5803 37.6776 71.7552 37.75 71.9375 37.75H84.3125C84.4948 37.75 84.6697 37.6776 84.7986 37.5486C84.9276 37.4197 85 37.2448 85 37.0625C85 36.8802 84.9276 36.7053 84.7986 36.5764C84.6697 36.4474 84.4948 36.375 84.3125 36.375Z" fill="#231F20"/>
<path d="M89.8125 36.375C89.6302 36.375 89.4553 36.4474 89.3264 36.5764C89.1974 36.7053 89.125 36.8802 89.125 37.0625C89.125 37.2448 89.1974 37.4197 89.3264 37.5486C89.4553 37.6776 89.6302 37.75 89.8125 37.75H91.1875C91.3698 37.75 91.5447 37.6776 91.6736 37.5486C91.8026 37.4197 91.875 37.2448 91.875 37.0625C91.875 36.8802 91.8026 36.7053 91.6736 36.5764C91.5447 36.4474 91.3698 36.375 91.1875 36.375H89.8125Z" fill="#231F20"/>
<path d="M52.8968 62.49C52.4394 62.49 52.2108 62.2567 52.2108 61.79C52.2108 61.3327 52.4394 61.104 52.8968 61.104C53.3448 61.104 53.5688 61.3327 53.5688 61.79C53.5688 62.2567 53.3448 62.49 52.8968 62.49ZM54.6748 62.49C54.2174 62.49 53.9888 62.2567 53.9888 61.79C53.9888 61.3327 54.2174 61.104 54.6748 61.104C55.1228 61.104 55.3468 61.3327 55.3468 61.79C55.3468 62.2567 55.1228 62.49 54.6748 62.49ZM51.4828 69C50.7268 69 50.1341 68.748 49.7048 68.244C49.3314 67.8053 49.1448 67.2313 49.1448 66.522V64.828L50.3488 64.184V66.41C50.3488 67.3807 50.8014 67.866 51.7068 67.866H56.3548C57.2601 67.866 57.7128 67.3807 57.7128 66.41V63.568L58.9168 62.924V66.522C58.9168 67.334 58.6694 67.964 58.1748 68.412C57.7361 68.804 57.1714 69 56.4808 69H51.4828ZM63.5983 69C62.7863 69 62.161 68.7387 61.7223 68.216C61.349 67.768 61.1623 67.1987 61.1623 66.508V60.614L62.3663 59.97V66.466C62.3663 67.3993 62.8237 67.866 63.7383 67.866H64.6623V69H63.5983ZM70.7323 67.866H74.4283V69H70.6203C70.1163 69 69.617 68.902 69.1223 68.706C68.6277 68.902 68.1237 69 67.6103 69H63.8163V67.866H67.5123H67.7083C67.0363 67.3153 66.3457 66.508 65.6363 65.444V64.828C66.0843 64.184 66.6163 63.6753 67.2323 63.302C67.8577 62.9287 68.483 62.742 69.1083 62.742C69.7337 62.742 70.359 62.9333 70.9843 63.316C71.6097 63.6893 72.151 64.2027 72.6083 64.856V65.444C71.899 66.508 71.2037 67.3153 70.5223 67.866H70.7323ZM66.7563 65.15C67.615 66.326 68.4037 67.1007 69.1223 67.474C69.841 67.0913 70.6297 66.312 71.4883 65.136C70.7883 64.2867 69.995 63.8573 69.1083 63.848C68.2217 63.848 67.4377 64.282 66.7563 65.15ZM78.4637 67.866H79.3877V69H78.3237C77.5491 69 76.9377 68.7527 76.4897 68.258C76.0417 68.7527 75.4304 69 74.6557 69H73.5917V67.866H74.5157C75.4304 67.866 75.8877 67.3993 75.8877 66.466V63.568L77.0917 62.924V66.466C77.0917 67.3993 77.5491 67.866 78.4637 67.866ZM75.1177 70.4C75.5657 70.4 75.7897 70.6333 75.7897 71.1C75.7897 71.5573 75.5657 71.786 75.1177 71.786C74.6604 71.786 74.4317 71.5573 74.4317 71.1C74.4317 70.6333 74.6604 70.4 75.1177 70.4ZM76.8957 70.4C77.3437 70.4 77.5677 70.6333 77.5677 71.1C77.5677 71.5573 77.3437 71.786 76.8957 71.786C76.4384 71.786 76.2097 71.5573 76.2097 71.1C76.2097 70.6333 76.4384 70.4 76.8957 70.4ZM83.4129 67.866H84.3369V69H83.2729C82.4983 69 81.8869 68.7527 81.4389 68.258C80.9909 68.7527 80.3796 69 79.6049 69H78.5409V67.866H79.4649C80.3796 67.866 80.8369 67.3993 80.8369 66.466V63.568L82.0409 62.924V66.466C82.0409 67.3993 82.4983 67.866 83.4129 67.866ZM81.3549 70.4C81.8029 70.4 82.0269 70.6287 82.0269 71.086C82.0269 71.5527 81.8029 71.786 81.3549 71.786C80.8976 71.786 80.6689 71.5527 80.6689 71.086C80.6689 70.6287 80.8976 70.4 81.3549 70.4ZM92.5062 67.866H93.4442V69H92.3802C91.6055 69 90.9942 68.7527 90.5462 68.258C90.0702 68.9393 89.3748 69.28 88.4602 69.28C87.5455 69.28 86.8548 68.944 86.3882 68.272C85.9495 68.7573 85.3382 69 84.5542 69H83.4902V67.866H84.4142C85.3288 67.866 85.7862 67.3993 85.7862 66.466V66.004C85.7862 64.9213 86.0522 64.0907 86.5842 63.512C87.0508 62.9987 87.6762 62.742 88.4602 62.742C89.3562 62.742 90.0468 63.0733 90.5322 63.736C90.9428 64.3053 91.1482 65.0613 91.1482 66.004V66.466C91.1482 67.3993 91.6008 67.866 92.5062 67.866ZM88.4602 68.146C88.9175 68.146 89.2768 67.9547 89.5382 67.572C89.8088 67.1893 89.9442 66.662 89.9442 65.99C89.9442 64.5713 89.4495 63.862 88.4602 63.862C87.4802 63.862 86.9902 64.5713 86.9902 65.99C86.9902 67.4273 87.4802 68.146 88.4602 68.146ZM92.6093 69V67.866H93.3513C94.322 67.866 94.8073 67.3573 94.8073 66.34V60.614L96.0253 59.97V66.354C96.0253 67.1847 95.778 67.8427 95.2833 68.328C94.8166 68.776 94.2053 69 93.4493 69H92.6093ZM98.5413 69V60.614L99.7453 59.97V69H98.5413Z" fill="#323232"/>
<defs>
<filter id="filter0_d_83_312" x="0" y="0" width="148" height="114" filterUnits="userSpaceOnUse" color-interpolation-filters="sRGB">
<feFlood flood-opacity="0" result="BackgroundImageFix"/>
<feColorMatrix in="SourceAlpha" type="matrix" values="0 0 0 0 0 0 0 0 0 0 0 0 0 0 0 0 0 0 127 0" result="hardAlpha"/>
<feOffset/>
<feGaussianBlur stdDeviation="12"/>
<feComposite in2="hardAlpha" operator="out"/>
<feColorMatrix type="matrix" values="0 0 0 0 0 0 0 0 0 0 0 0 0 0 0 0 0 0 0.05 0"/>
<feBlend mode="normal" in2="BackgroundImageFix" result="effect1_dropShadow_83_312"/>
<feBlend mode="normal" in="SourceGraphic" in2="effect1_dropShadow_83_312" result="shape"/>
</filter>
</defs>
</svg>
