<svg width="151" height="114" viewBox="0 0 151 114" fill="none" xmlns="http://www.w3.org/2000/svg">
<g filter="url(#filter0_d_269_1821)">
<rect x="24" y="24" width="103" height="66" rx="24" fill="white"/>
<rect x="24.5" y="24.5" width="102" height="65" rx="23.5" stroke="#979797" stroke-opacity="0.1"/>
</g>
<g clip-path="url(#clip0_269_1821)">
<path d="M94.9999 21.7308H67.0434C66.0829 21.7308 65.3042 20.9522 65.3042 19.9916V16.1352C65.3042 15.1747 66.0828 14.396 67.0434 14.396H94.9999C95.9603 14.396 96.739 15.1746 96.739 16.1352V19.9916C96.7389 20.9521 95.9603 21.7308 94.9999 21.7308Z" fill="#44C4A1"/>
<path d="M57.452 13.8721C57.1626 13.8721 56.8802 13.9014 56.6073 13.9572C56.4708 13.9852 56.337 14.0197 56.2057 14.0605C55.9432 14.1422 55.6918 14.2488 55.4542 14.3779C55.0979 14.5715 54.7727 14.8152 54.4883 15.0997C54.2039 15.3841 53.9601 15.7092 53.7666 16.0655C53.702 16.1843 53.6431 16.3066 53.5901 16.4319C53.484 16.6826 53.4017 16.9458 53.3459 17.2187C53.2901 17.4915 53.2607 17.774 53.2607 18.0634C53.2607 18.3528 53.2901 18.6352 53.3459 18.9081C53.3943 19.1443 53.466 19.3716 53.5524 19.5916C53.6156 19.7526 53.6848 19.9106 53.7667 20.0612C53.9016 20.3095 54.0621 20.5416 54.2425 20.7565C54.5798 21.158 54.99 21.4965 55.4542 21.7488C55.6048 21.8306 55.7627 21.8999 55.9238 21.9631C56.1437 22.0493 56.371 22.1212 56.6073 22.1696C56.8802 22.2254 57.1626 22.2547 57.452 22.2547C59.7668 22.2547 61.6433 20.3782 61.6433 18.0634C61.6433 15.7486 59.7668 13.8721 57.452 13.8721Z" fill="#44C4A1"/>
<path d="M57.452 34.1275C59.7668 34.1275 61.6433 32.251 61.6433 29.9363C61.6433 27.6215 59.7668 25.745 57.452 25.745C55.1372 25.745 53.2607 27.6215 53.2607 29.9363C53.2607 32.251 55.1372 34.1275 57.452 34.1275Z" fill="#E56353"/>
<path d="M94.9999 33.604H67.0434C66.0829 33.604 65.3042 32.8254 65.3042 31.8648V28.0084C65.3042 27.0479 66.0828 26.2692 67.0434 26.2692H94.9999C95.9603 26.2692 96.739 27.0478 96.739 28.0084V31.8648C96.7389 32.8253 95.9603 33.604 94.9999 33.604Z" fill="#E56353"/>
<path d="M57.452 46C59.7668 46 61.6433 44.1235 61.6433 41.8087C61.6433 39.494 59.7668 37.6175 57.452 37.6175C55.1372 37.6175 53.2607 39.494 53.2607 41.8087C53.2607 44.1235 55.1372 46 57.452 46Z" fill="#27A2DB"/>
<path d="M94.9999 45.4772H67.0434C66.0829 45.4772 65.3042 44.6986 65.3042 43.738V39.8816C65.3042 38.9211 66.0828 38.1424 67.0434 38.1424H94.9999C95.9603 38.1424 96.739 38.921 96.739 39.8816V43.738C96.7389 44.6985 95.9603 45.4772 94.9999 45.4772Z" fill="#27A2DB"/>
<path d="M57.452 10.3825C59.7668 10.3825 61.6433 8.50604 61.6433 6.19127C61.6433 3.87649 59.7668 2 57.452 2C55.1372 2 53.2607 3.87649 53.2607 6.19127C53.2607 8.50604 55.1372 10.3825 57.452 10.3825Z" fill="#FCD462"/>
<path d="M94.9999 9.85759H67.0434C66.0829 9.85759 65.3042 9.079 65.3042 8.11844V4.26196C65.3042 3.30149 66.0828 2.52281 67.0434 2.52281H94.9999C95.9603 2.52281 96.739 3.3014 96.739 4.26196V8.11844C96.7389 9.07891 95.9603 9.85759 94.9999 9.85759Z" fill="#FCD462"/>
</g>
<path d="M51.6335 73.41V70.358C51.6335 69.5647 51.8622 68.9487 52.3195 68.51C52.7302 68.1087 53.2995 67.894 54.0275 67.866C53.6075 67.39 53.3975 66.7273 53.3975 65.878C53.3975 64.8607 53.6635 64.0673 54.1955 63.498C54.6715 62.994 55.2968 62.742 56.0715 62.742C56.8648 62.742 57.4762 62.9893 57.9055 63.484C58.2882 63.9227 58.4795 64.4967 58.4795 65.206V66.718C58.4702 67.418 58.2508 67.9687 57.8215 68.37C57.3922 68.7713 56.7995 68.9813 56.0435 69H54.2095C53.2948 69 52.8375 69.4667 52.8375 70.4V72.766L51.6335 73.41ZM57.2755 65.262C57.2755 64.3287 56.8742 63.862 56.0715 63.862C55.6048 63.862 55.2408 64.0393 54.9795 64.394C54.7275 64.7393 54.6015 65.2247 54.6015 65.85C54.6015 66.4847 54.7228 66.9793 54.9655 67.334C55.2082 67.6887 55.5488 67.866 55.9875 67.866C56.8462 67.866 57.2755 67.432 57.2755 66.564V65.262ZM63.2937 69C62.4817 69 61.8563 68.7387 61.4177 68.216C61.0443 67.768 60.8577 67.1987 60.8577 66.508V60.614L62.0617 59.97V66.466C62.0617 67.3993 62.519 67.866 63.4337 67.866H64.3577V69H63.2937ZM63.5116 69V67.866H64.7716C65.677 67.866 66.1296 67.3993 66.1296 66.466V64.506L67.3336 63.862V66.466C67.3336 67.3993 67.791 67.866 68.7056 67.866H69.3496C70.2643 67.866 70.7216 67.3993 70.7216 66.466V64.03L71.9256 63.4V66.466C71.9256 67.3993 72.3783 67.866 73.2836 67.866H73.9416C74.8563 67.866 75.3136 67.3993 75.3136 66.466V63.568L76.5176 62.924V66.34C76.5176 67.3573 77.003 67.866 77.9736 67.866H79.1356V69H77.8756C77.0356 69 76.3963 68.7153 75.9576 68.146C75.5656 68.706 74.9543 68.9907 74.1236 69H73.1576C72.3363 69 71.725 68.7247 71.3236 68.174C70.9223 68.7153 70.325 68.9907 69.5316 69H68.5656C67.763 69 67.1516 68.7247 66.7316 68.174C66.3303 68.7247 65.719 69 64.8976 69H63.5116ZM81.9449 61.328C81.4876 61.328 81.2589 61.0947 81.2589 60.628C81.2589 60.1707 81.4876 59.942 81.9449 59.942C82.3929 59.942 82.6169 60.1707 82.6169 60.628C82.6169 61.0947 82.3929 61.328 81.9449 61.328ZM83.7229 61.328C83.2656 61.328 83.0369 61.0947 83.0369 60.628C83.0369 60.1707 83.2656 59.942 83.7229 59.942C84.1709 59.942 84.3949 60.1707 84.3949 60.628C84.3949 61.0947 84.1709 61.328 83.7229 61.328ZM78.2909 69V67.866H80.8109C80.3816 67.39 80.1669 66.7273 80.1669 65.878C80.1669 64.8607 80.4329 64.0673 80.9649 63.498C81.4316 62.994 82.0523 62.742 82.8269 62.742C83.6203 62.742 84.2363 62.9893 84.6749 63.484C85.0483 63.9227 85.2349 64.4967 85.2349 65.206V66.536C85.2256 67.3107 84.9969 67.922 84.5489 68.37C84.1103 68.79 83.5269 69 82.7989 69H78.2909ZM84.0309 65.262C84.0309 64.3287 83.6296 63.862 82.8269 63.862C82.3696 63.862 82.0103 64.0393 81.7489 64.394C81.4876 64.7393 81.3569 65.2247 81.3569 65.85C81.3569 66.466 81.4829 66.956 81.7349 67.32C81.9869 67.684 82.3229 67.866 82.7429 67.866C83.6016 67.866 84.0309 67.418 84.0309 66.522V65.262ZM91.0715 60.124L90.7495 60.726H88.4395L88.7615 60.124H89.1395C89.0462 59.956 88.9995 59.7787 88.9995 59.592C88.9995 59.3213 89.1022 59.088 89.3075 58.892C89.5128 58.6867 89.7555 58.584 90.0355 58.584C90.2688 58.584 90.4928 58.6587 90.7075 58.808V59.424C90.5022 59.2653 90.3062 59.186 90.1195 59.186C89.7742 59.186 89.6015 59.34 89.6015 59.648C89.6015 59.8067 89.6668 59.9653 89.7975 60.124H91.0715ZM92.8075 60.614L94.0255 59.97V66.354C94.0255 67.1847 93.7782 67.8427 93.2835 68.328C92.8168 68.776 92.2055 69 91.4495 69H86.6335L87.2215 67.866H89.2655V62.434L90.4695 61.79V67.866H91.3515C92.3222 67.866 92.8075 67.3573 92.8075 66.34V60.614ZM96.5413 69V60.614L97.7453 59.97V69H96.5413Z" fill="#323232"/>
<defs>
<filter id="filter0_d_269_1821" x="0" y="0" width="151" height="114" filterUnits="userSpaceOnUse" color-interpolation-filters="sRGB">
<feFlood flood-opacity="0" result="BackgroundImageFix"/>
<feColorMatrix in="SourceAlpha" type="matrix" values="0 0 0 0 0 0 0 0 0 0 0 0 0 0 0 0 0 0 127 0" result="hardAlpha"/>
<feOffset/>
<feGaussianBlur stdDeviation="12"/>
<feComposite in2="hardAlpha" operator="out"/>
<feColorMatrix type="matrix" values="0 0 0 0 0 0 0 0 0 0 0 0 0 0 0 0 0 0 0.05 0"/>
<feBlend mode="normal" in2="BackgroundImageFix" result="effect1_dropShadow_269_1821"/>
<feBlend mode="normal" in="SourceGraphic" in2="effect1_dropShadow_269_1821" result="shape"/>
</filter>
<clipPath id="clip0_269_1821">
<rect width="44" height="44" fill="white" transform="translate(53 2)"/>
</clipPath>
</defs>
</svg>
