<svg width="151" height="114" viewBox="0 0 151 114" fill="none" xmlns="http://www.w3.org/2000/svg">
<g filter="url(#filter0_d_83_390)">
<rect x="24" y="24" width="103" height="66" rx="24" fill="white"/>
<rect x="24.5" y="24.5" width="102" height="65" rx="23.5" stroke="#979797" stroke-opacity="0.1"/>
</g>
<path d="M76 12.3984C69.5926 12.3984 64.3984 17.5926 64.3984 24C64.3984 30.4074 69.5926 35.6016 76 35.6016C82.4074 35.6016 87.6016 30.4074 87.6016 24C87.6016 17.5926 82.4074 12.3984 76 12.3984ZM76 27.8672C73.8675 27.8672 72.1328 26.1325 72.1328 24C72.1328 21.8675 73.8675 20.1328 76 20.1328C78.1325 20.1328 79.8672 21.8675 79.8672 24C79.8672 26.1325 78.1325 27.8672 76 27.8672Z" fill="#FEA832"/>
<path d="M79.8672 24C79.8672 26.1325 78.1325 27.8672 76 27.8672V35.6016C82.4074 35.6016 87.6016 30.4074 87.6016 24C87.6016 17.5926 82.4074 12.3984 76 12.3984V20.1328C78.1325 20.1328 79.8672 21.8675 79.8672 24Z" fill="#FE9923"/>
<path d="M96.9173 20.1586L92.0875 19.3594C91.7523 18.1476 91.2625 17.0132 90.6695 15.9046L93.454 11.9858C93.8148 11.4702 93.7634 10.7741 93.325 10.3359L89.6641 6.67491C89.2259 6.23672 88.5297 6.18507 88.0141 6.54601L84.0953 9.33047C82.9867 8.73741 81.8523 8.24774 80.6405 7.9125L79.8413 3.08273C79.7383 2.46406 79.1969 2 78.5781 2H73.4219C72.8031 2 72.2617 2.46406 72.1586 3.08273L71.3594 7.9125C70.1476 8.24766 69.0132 8.73733 67.9046 9.33047L63.9859 6.54601C63.4703 6.18507 62.7741 6.23663 62.3359 6.67491L58.6751 10.3359C58.2367 10.7741 58.1852 11.4703 58.5461 11.9859L61.3305 15.9047C60.7376 17.0133 60.2477 18.1477 59.9125 19.3595L55.0827 20.1587C54.4641 20.2617 54 20.8031 54 21.4219V26.5781C54 27.1969 54.4641 27.7383 55.0827 27.8414L59.9125 28.6406C60.2477 29.8523 60.7375 30.9866 61.3305 32.0954L58.546 36.0141C58.1852 36.5297 58.2366 37.2259 58.675 37.6641L62.3359 41.3249C62.7741 41.7633 63.4703 41.8148 63.9859 41.4538L67.9047 38.6695C69.0133 39.2624 70.1477 39.7523 71.3595 40.0875L72.1587 44.9171C72.2617 45.5359 72.8031 46 73.4219 46H78.5781C79.1969 46 79.7383 45.5359 79.8414 44.9171L80.6406 40.0875C81.8524 39.7523 82.9868 39.2625 84.0954 38.6695L88.0141 41.4538C88.5297 41.8148 89.2259 41.7634 89.6641 41.3249L93.3249 37.6641C93.7633 37.2259 93.8148 36.5297 93.4539 36.0141L90.6695 32.0953C91.2624 30.9865 91.7523 29.8522 92.0875 28.6405L96.9173 27.8413C97.5359 27.7383 98 27.1969 98 26.5781V21.4219C98 20.8031 97.5359 20.2617 96.9173 20.1586ZM76 33.0234C71.0242 33.0234 66.9766 28.9758 66.9766 24C66.9766 19.0242 71.0242 14.9766 76 14.9766C80.9758 14.9766 85.0234 19.0242 85.0234 24C85.0234 28.9758 80.9758 33.0234 76 33.0234Z" fill="#FDC53A"/>
<path d="M98 21.4219V26.5781C98 27.1969 97.5359 27.7383 96.9173 27.8414L92.0875 28.6406C91.7523 29.8523 91.2625 30.9866 90.6695 32.0954L93.454 36.0141C93.8148 36.5297 93.7634 37.2259 93.325 37.6641L89.6641 41.3249C89.2259 41.7633 88.5297 41.8148 88.0141 41.4538L84.0953 38.6695C82.9867 39.2624 81.8523 39.7523 80.6405 40.0875L79.8413 44.9171C79.7383 45.5359 79.1969 46 78.5781 46H76V33.0234C80.9758 33.0234 85.0234 28.9758 85.0234 24C85.0234 19.0242 80.9758 14.9766 76 14.9766V2H78.5781C79.1969 2 79.7383 2.46406 79.8414 3.08273L80.6406 7.9125C81.8524 8.24766 82.9868 8.73733 84.0954 9.33047L88.0141 6.54601C88.5297 6.18507 89.2259 6.23663 89.6641 6.67491L93.3249 10.3359C93.7633 10.7741 93.8148 11.4703 93.4539 11.9859L90.6695 15.9047C91.2624 17.0133 91.7523 18.1477 92.0875 19.3595L96.9173 20.1587C97.5359 20.2617 98 20.8031 98 21.4219Z" fill="#FEA832"/>
<path d="M56.0686 62.49C55.6113 62.49 55.3826 62.2567 55.3826 61.79C55.3826 61.3327 55.6113 61.104 56.0686 61.104C56.5166 61.104 56.7406 61.3327 56.7406 61.79C56.7406 62.2567 56.5166 62.49 56.0686 62.49ZM57.8466 62.49C57.3893 62.49 57.1606 62.2567 57.1606 61.79C57.1606 61.3327 57.3893 61.104 57.8466 61.104C58.2946 61.104 58.5186 61.3327 58.5186 61.79C58.5186 62.2567 58.2946 62.49 57.8466 62.49ZM54.6546 69C53.8986 69 53.306 68.748 52.8766 68.244C52.5033 67.8053 52.3166 67.2313 52.3166 66.522V64.828L53.5206 64.184V66.41C53.5206 67.3807 53.9733 67.866 54.8786 67.866H59.5266C60.432 67.866 60.8846 67.3807 60.8846 66.41V63.568L62.0886 62.924V66.522C62.0886 67.334 61.8413 67.964 61.3466 68.412C60.908 68.804 60.3433 69 59.6526 69H54.6546ZM63.2142 69L63.8022 67.866H66.2942C66.6676 67.866 66.9289 67.7727 67.0782 67.586C67.2369 67.3993 67.3162 67.0773 67.3162 66.62C67.3162 65.3693 66.7516 64.422 65.6222 63.778L66.2102 62.784C67.7502 63.6613 68.5202 64.9447 68.5202 66.634C68.5202 68.2113 67.8482 69 66.5042 69H63.2142ZM70.76 69V60.614L71.964 59.97V69H70.76ZM73.3588 69L73.9468 67.866H76.4388C76.8121 67.866 77.0734 67.7727 77.2228 67.586C77.3814 67.3993 77.4608 67.0773 77.4608 66.62C77.4608 65.3787 76.8868 64.4453 75.7388 63.82L76.3548 62.784C77.8201 63.6427 78.5854 64.828 78.6508 66.34C78.6694 66.8813 78.7908 67.2733 79.0148 67.516C79.2481 67.7493 79.6168 67.866 80.1208 67.866H80.9468V69H80.0228C79.2481 69 78.6414 68.7527 78.2028 68.258C77.8948 68.7527 77.3768 69 76.6488 69H73.3588ZM87.6592 67.866V69H80.1132V67.866H82.5352C82.0779 67.278 81.8492 66.5547 81.8492 65.696C81.8492 64.744 82.1759 63.988 82.8292 63.428C83.3612 62.98 83.9772 62.7513 84.6772 62.742C85.6665 62.742 86.4365 63.1387 86.9872 63.932V65.066C86.3899 64.2633 85.6665 63.862 84.8172 63.862C84.2852 63.862 83.8559 64.0347 83.5292 64.38C83.2119 64.716 83.0532 65.1687 83.0532 65.738C83.0532 66.382 83.2445 66.9 83.6272 67.292C84.0192 67.6747 84.5372 67.866 85.1812 67.866H87.6592ZM94.8075 60.614L96.0255 59.97V66.354C96.0255 67.1847 95.7782 67.8427 95.2835 68.328C94.8168 68.776 94.2055 69 93.4495 69H88.6335L89.2215 67.866H91.2655V62.434L92.4695 61.79V67.866H93.3515C94.3222 67.866 94.8075 67.3573 94.8075 66.34V60.614ZM92.6795 70.89C92.4742 70.7313 92.2782 70.652 92.0915 70.652C91.7462 70.652 91.5735 70.806 91.5735 71.114C91.5735 71.2727 91.6388 71.4313 91.7695 71.59H93.0435L92.7215 72.192H90.4115L90.7335 71.59H91.1115C91.0182 71.422 90.9715 71.2447 90.9715 71.058C90.9715 70.7873 91.0742 70.5493 91.2795 70.344C91.4848 70.148 91.7275 70.05 92.0075 70.05C92.2408 70.05 92.4648 70.1247 92.6795 70.274V70.89ZM98.5413 69V60.614L99.7453 59.97V69H98.5413Z" fill="#323232"/>
<defs>
<filter id="filter0_d_83_390" x="0" y="0" width="151" height="114" filterUnits="userSpaceOnUse" color-interpolation-filters="sRGB">
<feFlood flood-opacity="0" result="BackgroundImageFix"/>
<feColorMatrix in="SourceAlpha" type="matrix" values="0 0 0 0 0 0 0 0 0 0 0 0 0 0 0 0 0 0 127 0" result="hardAlpha"/>
<feOffset/>
<feGaussianBlur stdDeviation="12"/>
<feComposite in2="hardAlpha" operator="out"/>
<feColorMatrix type="matrix" values="0 0 0 0 0 0 0 0 0 0 0 0 0 0 0 0 0 0 0.05 0"/>
<feBlend mode="normal" in2="BackgroundImageFix" result="effect1_dropShadow_83_390"/>
<feBlend mode="normal" in="SourceGraphic" in2="effect1_dropShadow_83_390" result="shape"/>
</filter>
</defs>
</svg>
