<svg width="141" height="114" viewBox="0 0 141 114" fill="none" xmlns="http://www.w3.org/2000/svg">
<g filter="url(#filter0_d_83_400)">
<rect x="24" y="24" width="100" height="66" rx="24" fill="white"/>
<rect x="24.5" y="24.5" width="99" height="65" rx="23.5" stroke="#979797" stroke-opacity="0.1"/>
</g>
<path d="M91.1029 46C91.812 46 92.3917 45.4246 92.3917 44.7109V39.0964H94.711C95.4229 39.0964 96.0001 38.5192 96.0001 37.8073V12.9542C96.0001 12.2423 95.4229 11.6651 94.711 11.6651H72.6194C71.9075 11.6651 71.3303 12.2423 71.3303 12.9542V37.8073C71.3303 38.5192 71.9075 39.0964 72.6194 39.0964H83.6652L90.1912 45.6224C90.4378 45.8691 90.7675 46 91.1029 46Z" fill="#00B6FF"/>
<path d="M91.1028 46C91.8118 46 92.3916 45.4246 92.3916 44.7109V39.0964H94.7108C95.4227 39.0964 95.9999 38.5192 95.9999 37.8073V12.9542C95.9999 12.2423 95.4227 11.6651 94.7108 11.6651H83.665V39.0964L90.191 45.6224C90.4376 45.8691 90.7673 46 91.1028 46Z" fill="#4893FF"/>
<path d="M89.058 30.591L86.6313 20.8837C86.2905 19.5207 85.0711 18.5688 83.6646 18.5688C82.2592 18.5688 81.0398 19.5208 80.699 20.8838L78.2724 30.591C78.0998 31.2817 78.5198 31.9815 79.2104 32.1542C79.9011 32.3268 80.601 31.9069 80.7736 31.2163L81.2198 29.4313H86.1107L86.5569 31.2163C86.7295 31.9069 87.4294 32.3268 88.1201 32.1542C88.8108 31.9815 89.2307 31.2817 89.058 30.591ZM81.8643 26.8531L83.2003 21.509C83.2535 21.2958 83.4445 21.1468 83.6659 21.1468C83.8859 21.1468 84.0768 21.2957 84.1301 21.509L85.4661 26.8531H81.8643Z" fill="#F5FAFF"/>
<path d="M56.8971 36.3349C56.1881 36.3349 55.6083 35.7595 55.6083 35.0458V29.4313H53.2891C52.5772 29.4313 52 28.8541 52 28.1422V3.28906C52 2.57716 52.5772 2 53.2891 2H75.3807C76.0926 2 76.6697 2.57716 76.6697 3.28906V28.1422C76.6697 28.8541 76.0926 29.4313 75.3807 29.4313H64.3349L57.8089 35.9573C57.5623 36.204 57.2326 36.3349 56.8971 36.3349Z" fill="#FDC53A"/>
<path d="M75.3808 2H64.335V29.4313H75.3808C76.0927 29.4313 76.6698 28.8541 76.6698 28.1422V3.28906C76.6698 2.57716 76.0928 2 75.3808 2Z" fill="#F1B621"/>
<path d="M70.2238 21.3833C68.7544 20.9481 67.3921 20.236 66.2048 19.299C67.7926 17.4786 68.9457 15.2815 69.5287 12.8626H69.8577C70.5696 12.8626 71.1468 12.2854 71.1468 11.5735C71.1468 10.8616 70.5696 10.2845 69.8577 10.2845H65.6238V8.81201C65.6238 8.10011 65.0467 7.52295 64.3348 7.52295C63.6228 7.52295 63.0457 8.10011 63.0457 8.81201V10.2844H58.8119C58.1 10.2844 57.5228 10.8615 57.5228 11.5734C57.5228 12.2853 58.1 12.8625 58.8119 12.8625H66.8597C66.3539 14.5838 65.4708 16.1518 64.3348 17.4863C64.0673 17.1602 63.8422 16.8229 63.6092 16.4678L62.651 15.0082C62.2602 14.4131 61.461 14.2473 60.866 14.6381C60.2708 15.0288 60.1051 15.828 60.4958 16.4231L61.4538 17.8823C61.7733 18.3692 62.1212 18.8339 62.4936 19.2756C60.6965 20.6714 59.0444 21.1833 58.4061 21.3957C57.7304 21.6197 57.3643 22.3492 57.5883 23.025C57.7678 23.5661 58.2711 23.9086 58.8116 23.9086C59.2057 23.9086 61.8739 23.1018 64.3348 21.1026C66.794 23.1408 69.4574 23.9086 69.8581 23.9086C70.4144 23.9086 70.9276 23.5457 71.0937 22.9853C71.2959 22.3027 70.9064 21.5854 70.2238 21.3833Z" fill="#F5FAFF"/>
<path d="M70.224 21.3833C68.7546 20.9481 67.3924 20.236 66.205 19.299C67.7928 17.4786 68.9459 15.2815 69.5289 12.8626H69.8579C70.5698 12.8626 71.147 12.2854 71.147 11.5735C71.147 10.8616 70.5698 10.2845 69.8579 10.2845H65.624V8.81201C65.624 8.10011 65.0469 7.52295 64.335 7.52295V12.8626H66.8598C66.354 14.5839 65.471 16.1519 64.335 17.4864V21.1029C66.7942 23.1411 69.4576 23.9088 69.8583 23.9088C70.4146 23.9088 70.9278 23.5459 71.0939 22.9855C71.2961 22.3027 70.9066 21.5854 70.224 21.3833Z" fill="#DFE9EE"/>
<path d="M86.5569 31.2163C86.7296 31.9069 87.4294 32.3268 88.1201 32.1542C88.8108 31.9815 89.2308 31.2817 89.0581 30.591L86.6314 20.8837C86.2907 19.5209 85.0716 18.569 83.6653 18.5688V21.1469C83.6655 21.1469 83.6657 21.1468 83.666 21.1468C83.8861 21.1468 84.0769 21.2957 84.1302 21.509L85.4662 26.8531H83.6653V29.4313H86.1107L86.5569 31.2163Z" fill="#DFE9EE"/>
<path d="M61.5093 61.09C61.0519 61.09 60.8233 60.8567 60.8233 60.39C60.8233 59.9327 61.0519 59.704 61.5093 59.704C61.9573 59.704 62.1813 59.9327 62.1813 60.39C62.1813 60.8567 61.9573 61.09 61.5093 61.09ZM63.2873 61.09C62.8299 61.09 62.6013 60.8567 62.6013 60.39C62.6013 59.9327 62.8299 59.704 63.2873 59.704C63.7353 59.704 63.9593 59.9327 63.9593 60.39C63.9593 60.8567 63.7353 61.09 63.2873 61.09ZM65.8913 67.866H66.8153V69H65.7513C64.7899 69 64.0993 68.6453 63.6793 67.936C63.2313 68.3653 62.6759 68.58 62.0133 68.58C61.1919 68.58 60.5386 68.272 60.0533 67.656C59.6519 67.1333 59.4513 66.494 59.4513 65.738C59.4513 64.8327 59.7266 64.1047 60.2773 63.554C60.7439 63.078 61.3133 62.84 61.9853 62.84C62.4986 62.84 62.9419 62.9707 63.3153 63.232V62.63L64.5333 61.986V66.466C64.5333 67.3993 64.9859 67.866 65.8913 67.866ZM63.3153 64.534C62.9699 64.1513 62.5453 63.96 62.0413 63.96C61.6306 63.96 61.2946 64.128 61.0333 64.464C60.7719 64.7907 60.6413 65.22 60.6413 65.752C60.6413 66.2933 60.7719 66.7273 61.0333 67.054C61.2946 67.3807 61.6353 67.544 62.0553 67.544C62.5779 67.544 63.0073 67.3293 63.3433 66.9C63.3246 66.732 63.3153 66.6013 63.3153 66.508V64.534ZM71.2584 61.23C70.8011 61.23 70.5724 60.9967 70.5724 60.53C70.5724 60.0727 70.8011 59.844 71.2584 59.844C71.7064 59.844 71.9304 60.0727 71.9304 60.53C71.9304 60.9967 71.7064 61.23 71.2584 61.23ZM72.8964 67.866H76.5924V69H72.7844C72.2804 69 71.7811 68.902 71.2864 68.706C70.7917 68.902 70.2877 69 69.7744 69H65.9804V67.866H69.6764H69.8724C69.2004 67.3153 68.5097 66.508 67.8004 65.444V64.828C68.2484 64.184 68.7804 63.6753 69.3964 63.302C70.0217 62.9287 70.6471 62.742 71.2724 62.742C71.8977 62.742 72.5231 62.9333 73.1484 63.316C73.7737 63.6893 74.3151 64.2027 74.7724 64.856V65.444C74.0631 66.508 73.3677 67.3153 72.6864 67.866H72.8964ZM68.9204 65.15C69.7791 66.326 70.5677 67.1007 71.2864 67.474C72.0051 67.0913 72.7937 66.312 73.6524 65.136C72.9524 64.2867 72.1591 63.8573 71.2724 63.848C70.3857 63.848 69.6017 64.282 68.9204 65.15ZM80.5298 67.866H81.4538V69H80.3898C79.5871 69 78.9664 68.7433 78.5278 68.23C78.0611 68.7433 77.4171 69 76.5958 69H75.7558V67.866H76.4978C77.4684 67.866 77.9538 67.3573 77.9538 66.34V60.614L79.1718 59.97V66.354C79.1718 66.8953 79.2744 67.2827 79.4798 67.516C79.6944 67.7493 80.0444 67.866 80.5298 67.866ZM80.6093 69V67.866H81.3513C82.322 67.866 82.8073 67.3573 82.8073 66.34V60.614L84.0253 59.97V66.354C84.0253 67.1847 83.778 67.8427 83.2833 68.328C82.8166 68.776 82.2053 69 81.4493 69H80.6093ZM86.5413 69V60.614L87.7453 59.97V69H86.5413Z" fill="#323232"/>
<defs>
<filter id="filter0_d_83_400" x="0" y="0" width="148" height="114" filterUnits="userSpaceOnUse" color-interpolation-filters="sRGB">
<feFlood flood-opacity="0" result="BackgroundImageFix"/>
<feColorMatrix in="SourceAlpha" type="matrix" values="0 0 0 0 0 0 0 0 0 0 0 0 0 0 0 0 0 0 127 0" result="hardAlpha"/>
<feOffset/>
<feGaussianBlur stdDeviation="12"/>
<feComposite in2="hardAlpha" operator="out"/>
<feColorMatrix type="matrix" values="0 0 0 0 0 0 0 0 0 0 0 0 0 0 0 0 0 0 0.05 0"/>
<feBlend mode="normal" in2="BackgroundImageFix" result="effect1_dropShadow_83_400"/>
<feBlend mode="normal" in="SourceGraphic" in2="effect1_dropShadow_83_400" result="shape"/>
</filter>
</defs>
</svg>
