<svg width="117" height="116" viewBox="0 0 117 116" fill="none" xmlns="http://www.w3.org/2000/svg">
<g filter="url(#filter0_d_87_1355)">
<rect x="14.5" y="12" width="88" height="88" rx="4" fill="#F9F9F9"/>
<rect x="15" y="12.5" width="87" height="87" rx="3.5" stroke="#979797" stroke-opacity="0.1" stroke-dasharray="12 12"/>
</g>
<rect x="47" y="26" width="24" height="24" rx="5" stroke="#979797" stroke-width="1.5" stroke-linecap="round" stroke-linejoin="round"/>
<path d="M63 43.3334H55" stroke="#979797" stroke-width="1.5" stroke-linecap="round" stroke-linejoin="round"/>
<path d="M56.332 35.3334L59 32.6667L61.668 35.3334" stroke="#979797" stroke-width="1.5" stroke-linecap="round" stroke-linejoin="round"/>
<path d="M59.0002 39.3334V32.6667" stroke="#979797" stroke-width="1.5" stroke-linecap="round" stroke-linejoin="round"/>
<path d="M34.0516 81.232C34.0516 83.1733 33.337 84.3893 31.9076 84.88C31.5663 84.9973 31.2036 85.056 30.8196 85.056C30.201 85.056 29.6036 84.9067 29.0276 84.608V83.664C29.5716 83.9627 30.1263 84.112 30.6916 84.112C31.1396 84.112 31.5343 84.0107 31.8756 83.808C32.6223 83.36 32.9956 82.5227 32.9956 81.296V75.712L34.0516 75.152V81.232ZM43.4484 81.008V82H41.7524C41.7417 82.704 41.5124 83.3227 41.0644 83.856C40.627 84.4 40.0564 84.7573 39.3524 84.928C39.0964 85.0027 38.819 85.04 38.5204 85.04C37.9017 85.04 37.299 84.8907 36.7124 84.592V83.648C37.267 83.9467 37.8164 84.096 38.3604 84.096C38.7977 84.096 39.1817 84 39.5124 83.808C39.843 83.6373 40.1204 83.376 40.3444 83.024C40.5684 82.6827 40.6804 82.3413 40.6804 82L39.3204 81.952C38.1364 81.8987 37.251 81.5253 36.6644 80.832C36.1844 80.2453 35.9444 79.4613 35.9444 78.48C35.9444 77.328 36.243 76.4373 36.8404 75.808C37.3737 75.2427 38.0884 74.96 38.9844 74.96C39.9124 74.96 40.6217 75.2373 41.1124 75.792C41.539 76.272 41.7524 76.912 41.7524 77.712V81.008H43.4484ZM40.6804 77.824C40.6804 76.5653 40.115 75.936 38.9844 75.936C38.355 75.936 37.8644 76.16 37.5124 76.608C37.171 77.0453 37.0004 77.664 37.0004 78.464C37.0004 80.0533 37.7844 80.8853 39.3524 80.96C39.8217 80.992 40.2644 81.008 40.6804 81.008V77.824ZM47.1813 80.944C47.5759 79.3013 48.2639 77.9253 49.2453 76.816C50.3439 75.5787 51.6346 74.96 53.1173 74.96C54.3119 74.96 55.2613 75.3707 55.9653 76.192C56.5626 76.896 56.8613 77.7653 56.8613 78.8V79.248C56.8613 80.1547 56.5839 80.8587 56.0293 81.36C55.5599 81.7867 54.9359 82 54.1573 82H47.6453C46.6853 82 45.9653 81.6747 45.4853 81.024C44.9839 81.6747 44.2586 82 43.3092 82H42.6212V81.008H43.1813C44.3546 81.008 44.9413 80.4 44.9413 79.184V76.88L46.0133 76.32V79.184C46.0133 80.1867 46.4026 80.7733 47.1813 80.944ZM55.7893 79.12V78.8C55.7893 77.904 55.5066 77.184 54.9413 76.64C54.4613 76.1707 53.8586 75.936 53.1333 75.936C51.8853 75.936 50.7759 76.5227 49.8053 77.696C49.0693 78.592 48.5146 79.696 48.1413 81.008H54.0773C55.2186 81.008 55.7893 80.3787 55.7893 79.12ZM65.8674 81.6C65.7607 81.664 65.5847 81.7653 65.3394 81.904L65.3074 81.92C64.4327 82.4107 63.846 82.832 63.5474 83.184C63.2594 83.536 63.1154 84.0053 63.1154 84.592C63.1154 85.296 63.3554 85.872 63.8354 86.32C64.326 86.7787 64.9554 87.008 65.7234 87.008H65.7554C66.9714 87.008 67.9474 86.736 68.6834 86.192V87.168C67.8087 87.7227 66.822 88 65.7234 88C64.5714 88 63.654 87.6213 62.9714 86.864C62.406 86.224 62.1234 85.456 62.1234 84.56C62.1234 83.8027 62.31 83.1947 62.6834 82.736C63.0567 82.2773 63.8087 81.7333 64.9394 81.104C64.0114 80.4747 63.03 79.424 61.9954 77.952V77.296C63.1047 75.7387 64.4114 74.96 65.9154 74.96C66.6194 74.96 67.318 75.168 68.0114 75.584C68.7047 76 69.318 76.5813 69.8514 77.328V77.952C69.1154 78.9653 68.1287 79.952 66.8914 80.912C67.1687 80.976 67.4567 81.008 67.7554 81.008H71.6274V82H67.6914C67.062 82 66.454 81.8667 65.8674 81.6ZM62.9234 77.648C64.0434 79.12 65.03 80.08 65.8834 80.528C66.982 79.76 67.9954 78.7893 68.9234 77.616C68.07 76.496 67.0674 75.936 65.9154 75.936H65.8674C64.7687 75.936 63.7874 76.5067 62.9234 77.648ZM75.6727 73.072C75.2354 73.072 75.0168 72.848 75.0168 72.4C75.0168 71.9733 75.2354 71.76 75.6727 71.76C76.0888 71.76 76.2968 71.9733 76.2968 72.4C76.2968 72.848 76.0888 73.072 75.6727 73.072ZM70.8087 82V81.008H73.5288C72.9421 80.4213 72.6488 79.5787 72.6488 78.48C72.6488 77.328 72.9474 76.4373 73.5448 75.808C74.0674 75.2427 74.7608 74.96 75.6248 74.96C76.5101 74.96 77.1928 75.2373 77.6728 75.792C78.0888 76.272 78.2968 76.912 78.2968 77.712V79.264C78.2861 80.128 78.0248 80.8053 77.5128 81.296C77.0434 81.7653 76.4034 82 75.5928 82H70.8087ZM77.2408 77.808C77.2408 76.56 76.7021 75.936 75.6248 75.936C75.0274 75.936 74.5581 76.16 74.2168 76.608C73.8861 77.0453 73.7208 77.664 73.7208 78.464C73.7208 79.2427 73.8808 79.8613 74.2008 80.32C74.5314 80.7787 74.9688 81.008 75.5128 81.008C76.6648 81.008 77.2408 80.4107 77.2408 79.216V77.808ZM82.6141 81.232C82.6141 83.1733 81.8995 84.3893 80.4701 84.88C80.1288 84.9973 79.7661 85.056 79.3821 85.056C78.7635 85.056 78.1661 84.9067 77.5901 84.608V83.664C78.1341 83.9627 78.6888 84.112 79.2541 84.112C79.7021 84.112 80.0968 84.0107 80.4381 83.808C81.1848 83.36 81.5581 82.5227 81.5581 81.296V75.712L82.6141 75.152V81.232ZM84.9869 82V72.24L86.0589 71.68V82H84.9869Z" fill="#979797"/>
<defs>
<filter id="filter0_d_87_1355" x="0.5" y="0" width="116" height="116" filterUnits="userSpaceOnUse" color-interpolation-filters="sRGB">
<feFlood flood-opacity="0" result="BackgroundImageFix"/>
<feColorMatrix in="SourceAlpha" type="matrix" values="0 0 0 0 0 0 0 0 0 0 0 0 0 0 0 0 0 0 127 0" result="hardAlpha"/>
<feOffset dy="2"/>
<feGaussianBlur stdDeviation="7"/>
<feComposite in2="hardAlpha" operator="out"/>
<feColorMatrix type="matrix" values="0 0 0 0 0 0 0 0 0 0 0 0 0 0 0 0 0 0 0.05 0"/>
<feBlend mode="normal" in2="BackgroundImageFix" result="effect1_dropShadow_87_1355"/>
<feBlend mode="normal" in="SourceGraphic" in2="effect1_dropShadow_87_1355" result="shape"/>
</filter>
</defs>
</svg>
