<svg width="117" height="128" viewBox="0 0 117 128" fill="none" xmlns="http://www.w3.org/2000/svg">
<g filter="url(#filter0_d_87_1357)">
<rect x="14.5" y="12" width="88" height="88" rx="4" fill="#F9F9F9"/>
<rect x="15" y="12.5" width="87" height="87" rx="3.5" stroke="#979797" stroke-opacity="0.1" stroke-dasharray="12 12"/>
</g>
<rect x="47" y="26" width="24" height="24" rx="5" stroke="#979797" stroke-width="1.5" stroke-linecap="round" stroke-linejoin="round"/>
<path d="M63 43.3334H55" stroke="#979797" stroke-width="1.5" stroke-linecap="round" stroke-linejoin="round"/>
<path d="M56.332 35.3334L59 32.6667L61.668 35.3334" stroke="#979797" stroke-width="1.5" stroke-linecap="round" stroke-linejoin="round"/>
<path d="M59.0002 39.3334V32.6667" stroke="#979797" stroke-width="1.5" stroke-linecap="round" stroke-linejoin="round"/>
<path d="M34.0516 81.232C34.0516 83.1733 33.337 84.3893 31.9076 84.88C31.5663 84.9973 31.2036 85.056 30.8196 85.056C30.201 85.056 29.6036 84.9067 29.0276 84.608V83.664C29.5716 83.9627 30.1263 84.112 30.6916 84.112C31.1396 84.112 31.5343 84.0107 31.8756 83.808C32.6223 83.36 32.9956 82.5227 32.9956 81.296V75.712L34.0516 75.152V81.232ZM43.4484 81.008V82H41.7524C41.7417 82.704 41.5124 83.3227 41.0644 83.856C40.627 84.4 40.0564 84.7573 39.3524 84.928C39.0964 85.0027 38.819 85.04 38.5204 85.04C37.9017 85.04 37.299 84.8907 36.7124 84.592V83.648C37.267 83.9467 37.8164 84.096 38.3604 84.096C38.7977 84.096 39.1817 84 39.5124 83.808C39.843 83.6373 40.1204 83.376 40.3444 83.024C40.5684 82.6827 40.6804 82.3413 40.6804 82L39.3204 81.952C38.1364 81.8987 37.251 81.5253 36.6644 80.832C36.1844 80.2453 35.9444 79.4613 35.9444 78.48C35.9444 77.328 36.243 76.4373 36.8404 75.808C37.3737 75.2427 38.0884 74.96 38.9844 74.96C39.9124 74.96 40.6217 75.2373 41.1124 75.792C41.539 76.272 41.7524 76.912 41.7524 77.712V81.008H43.4484ZM40.6804 77.824C40.6804 76.5653 40.115 75.936 38.9844 75.936C38.355 75.936 37.8644 76.16 37.5124 76.608C37.171 77.0453 37.0004 77.664 37.0004 78.464C37.0004 80.0533 37.7844 80.8853 39.3524 80.96C39.8217 80.992 40.2644 81.008 40.6804 81.008V77.824ZM47.1813 80.944C47.5759 79.3013 48.2639 77.9253 49.2453 76.816C50.3439 75.5787 51.6346 74.96 53.1173 74.96C54.3119 74.96 55.2613 75.3707 55.9653 76.192C56.5626 76.896 56.8613 77.7653 56.8613 78.8V79.248C56.8613 80.1547 56.5839 80.8587 56.0293 81.36C55.5599 81.7867 54.9359 82 54.1573 82H47.6453C46.6853 82 45.9653 81.6747 45.4853 81.024C44.9839 81.6747 44.2586 82 43.3092 82H42.6212V81.008H43.1813C44.3546 81.008 44.9413 80.4 44.9413 79.184V76.88L46.0133 76.32V79.184C46.0133 80.1867 46.4026 80.7733 47.1813 80.944ZM55.7893 79.12V78.8C55.7893 77.904 55.5066 77.184 54.9413 76.64C54.4613 76.1707 53.8586 75.936 53.1333 75.936C51.8853 75.936 50.7759 76.5227 49.8053 77.696C49.0693 78.592 48.5146 79.696 48.1413 81.008H54.0773C55.2186 81.008 55.7893 80.3787 55.7893 79.12ZM65.8674 81.6C65.7607 81.664 65.5847 81.7653 65.3394 81.904L65.3074 81.92C64.4327 82.4107 63.846 82.832 63.5474 83.184C63.2594 83.536 63.1154 84.0053 63.1154 84.592C63.1154 85.296 63.3554 85.872 63.8354 86.32C64.326 86.7787 64.9554 87.008 65.7234 87.008H65.7554C66.9714 87.008 67.9474 86.736 68.6834 86.192V87.168C67.8087 87.7227 66.822 88 65.7234 88C64.5714 88 63.654 87.6213 62.9714 86.864C62.406 86.224 62.1234 85.456 62.1234 84.56C62.1234 83.8027 62.31 83.1947 62.6834 82.736C63.0567 82.2773 63.8087 81.7333 64.9394 81.104C64.0114 80.4747 63.03 79.424 61.9954 77.952V77.296C63.1047 75.7387 64.4114 74.96 65.9154 74.96C66.6194 74.96 67.318 75.168 68.0114 75.584C68.7047 76 69.318 76.5813 69.8514 77.328V77.952C69.1154 78.9653 68.1287 79.952 66.8914 80.912C67.1687 80.976 67.4567 81.008 67.7554 81.008H71.6274V82H67.6914C67.062 82 66.454 81.8667 65.8674 81.6ZM62.9234 77.648C64.0434 79.12 65.03 80.08 65.8834 80.528C66.982 79.76 67.9954 78.7893 68.9234 77.616C68.07 76.496 67.0674 75.936 65.9154 75.936H65.8674C64.7687 75.936 63.7874 76.5067 62.9234 77.648ZM75.6727 73.072C75.2354 73.072 75.0168 72.848 75.0168 72.4C75.0168 71.9733 75.2354 71.76 75.6727 71.76C76.0888 71.76 76.2968 71.9733 76.2968 72.4C76.2968 72.848 76.0888 73.072 75.6727 73.072ZM70.8087 82V81.008H73.5288C72.9421 80.4213 72.6488 79.5787 72.6488 78.48C72.6488 77.328 72.9474 76.4373 73.5448 75.808C74.0674 75.2427 74.7608 74.96 75.6248 74.96C76.5101 74.96 77.1928 75.2373 77.6728 75.792C78.0888 76.272 78.2968 76.912 78.2968 77.712V79.264C78.2861 80.128 78.0248 80.8053 77.5128 81.296C77.0434 81.7653 76.4034 82 75.5928 82H70.8087ZM77.2408 77.808C77.2408 76.56 76.7021 75.936 75.6248 75.936C75.0274 75.936 74.5581 76.16 74.2168 76.608C73.8861 77.0453 73.7208 77.664 73.7208 78.464C73.7208 79.2427 73.8808 79.8613 74.2008 80.32C74.5314 80.7787 74.9688 81.008 75.5128 81.008C76.6648 81.008 77.2408 80.4107 77.2408 79.216V77.808ZM82.6141 81.232C82.6141 83.1733 81.8995 84.3893 80.4701 84.88C80.1288 84.9973 79.7661 85.056 79.3821 85.056C78.7635 85.056 78.1661 84.9067 77.5901 84.608V83.664C78.1341 83.9627 78.6888 84.112 79.2541 84.112C79.7021 84.112 80.0968 84.0107 80.4381 83.808C81.1848 83.36 81.5581 82.5227 81.5581 81.296V75.712L82.6141 75.152V81.232ZM84.9869 82V72.24L86.0589 71.68V82H84.9869Z" fill="#979797"/>
<path d="M25.91 113.22C25.59 113.22 25.43 113.052 25.43 112.716C25.43 112.396 25.59 112.236 25.91 112.236C26.23 112.236 26.39 112.396 26.39 112.716C26.39 113.052 26.23 113.22 25.91 113.22ZM27.278 113.22C26.958 113.22 26.798 113.052 26.798 112.716C26.798 112.396 26.958 112.236 27.278 112.236C27.598 112.236 27.758 112.396 27.758 112.716C27.758 113.052 27.598 113.22 27.278 113.22ZM26.618 120C25.906 120 25.35 119.764 24.95 119.292C24.614 118.884 24.446 118.356 24.446 117.708C24.446 116.228 25.19 115.232 26.678 114.72C28.166 115.232 28.91 116.228 28.91 117.708C28.91 118.452 28.69 119.032 28.25 119.448C27.866 119.816 27.362 120 26.738 120H26.618ZM26.582 119.256H26.774C27.19 119.256 27.518 119.12 27.758 118.848C27.998 118.568 28.118 118.188 28.118 117.708C28.118 116.644 27.638 115.892 26.678 115.452C25.718 115.892 25.238 116.644 25.238 117.708C25.238 118.18 25.358 118.556 25.598 118.836C25.838 119.116 26.166 119.256 26.582 119.256ZM32.3747 119.424C32.3747 120.88 31.8387 121.792 30.7667 122.16C30.5107 122.248 30.2387 122.292 29.9507 122.292C29.4867 122.292 29.0387 122.18 28.6067 121.956V121.248C29.0147 121.472 29.4307 121.584 29.8547 121.584C30.1907 121.584 30.4867 121.508 30.7427 121.356C31.3027 121.02 31.5827 120.392 31.5827 119.472V115.284L32.3747 114.864V119.424ZM39.7972 119.256V120H38.5252C38.5172 120.528 38.3452 120.992 38.0092 121.392C37.6812 121.8 37.2532 122.068 36.7252 122.196C36.5332 122.252 36.3252 122.28 36.1012 122.28C35.6372 122.28 35.1852 122.168 34.7452 121.944V121.236C35.1612 121.46 35.5732 121.572 35.9812 121.572C36.3092 121.572 36.5972 121.5 36.8452 121.356C37.0932 121.228 37.3012 121.032 37.4692 120.768C37.6372 120.512 37.7212 120.256 37.7212 120L36.7012 119.964C35.8132 119.924 35.1492 119.644 34.7092 119.124C34.3492 118.684 34.1692 118.096 34.1692 117.36C34.1692 116.496 34.3932 115.828 34.8412 115.356C35.2412 114.932 35.7772 114.72 36.4492 114.72C37.1452 114.72 37.6772 114.928 38.0452 115.344C38.3652 115.704 38.5252 116.184 38.5252 116.784V119.256H39.7972ZM37.7212 116.868C37.7212 115.924 37.2972 115.452 36.4492 115.452C35.9772 115.452 35.6092 115.62 35.3452 115.956C35.0892 116.284 34.9612 116.748 34.9612 117.348C34.9612 118.54 35.5492 119.164 36.7252 119.22C37.0772 119.244 37.4092 119.256 37.7212 119.256V116.868ZM42.9719 119.208C43.2679 117.976 43.7839 116.944 44.5199 116.112C45.3439 115.184 46.3119 114.72 47.4239 114.72C48.3199 114.72 49.0319 115.028 49.5599 115.644C50.0079 116.172 50.2319 116.824 50.2319 117.6V117.936C50.2319 118.616 50.0239 119.144 49.6079 119.52C49.2559 119.84 48.7879 120 48.2039 120H43.3199C42.5999 120 42.0599 119.756 41.6999 119.268C41.3239 119.756 40.7799 120 40.0679 120H39.5519V119.256H39.9719C40.8519 119.256 41.2919 118.8 41.2919 117.888V116.16L42.0959 115.74V117.888C42.0959 118.64 42.3879 119.08 42.9719 119.208ZM49.4279 117.84V117.6C49.4279 116.928 49.2159 116.388 48.7919 115.98C48.4319 115.628 47.9799 115.452 47.4359 115.452C46.4999 115.452 45.6679 115.892 44.9399 116.772C44.3879 117.444 43.9719 118.272 43.6919 119.256H48.1439C48.9999 119.256 49.4279 118.784 49.4279 117.84ZM65.2125 119.256V120H64.6965C64.0245 120 63.5045 119.784 63.1365 119.352C62.8485 119.784 62.3845 120 61.7445 120H54.2205L54.6165 119.256H56.2005V112.68L56.9445 112.26V117.3C57.8805 115.58 59.1205 114.72 60.6645 114.72C61.5605 114.72 62.2725 115.028 62.8005 115.644C63.2485 116.172 63.4725 116.824 63.4725 117.6V117.912C63.4725 118.808 63.9165 119.256 64.8045 119.256H65.2125ZM62.6685 117.6C62.6685 116.928 62.4565 116.388 62.0325 115.98C61.6725 115.628 61.2205 115.452 60.6765 115.452C59.7405 115.452 58.9085 115.904 58.1805 116.808C57.6285 117.488 57.2205 118.304 56.9565 119.256H61.6605C62.0445 119.256 62.3085 119.168 62.4525 118.992C62.5965 118.808 62.6685 118.476 62.6685 117.996V117.6ZM67.7538 113.316C67.4258 113.316 67.2618 113.148 67.2618 112.812C67.2618 112.492 67.4258 112.332 67.7538 112.332C68.0658 112.332 68.2218 112.492 68.2218 112.812C68.2218 113.148 68.0658 113.316 67.7538 113.316ZM69.1218 113.316C68.7938 113.316 68.6298 113.148 68.6298 112.812C68.6298 112.492 68.7938 112.332 69.1218 112.332C69.4338 112.332 69.5898 112.492 69.5898 112.812C69.5898 113.148 69.4338 113.316 69.1218 113.316ZM69.6858 119.256H71.8818V120H69.1698C68.8978 120 68.6498 119.972 68.4258 119.916C68.2018 119.972 67.9538 120 67.6818 120H64.9698V119.256H67.1778C66.5458 118.672 66.2298 117.98 66.2298 117.18C66.2298 116.404 66.4458 115.788 66.8778 115.332C67.2698 114.924 67.7858 114.72 68.4258 114.72C69.1538 114.72 69.7178 114.984 70.1178 115.512C70.4538 115.952 70.6218 116.508 70.6218 117.18C70.6218 117.988 70.3098 118.68 69.6858 119.256ZM68.4738 119.148C68.8818 119.004 69.2138 118.748 69.4698 118.38C69.7338 118.004 69.8658 117.6 69.8658 117.168C69.8658 116.64 69.7338 116.224 69.4698 115.92C69.2138 115.608 68.8658 115.452 68.4258 115.452C67.9858 115.452 67.6378 115.608 67.3818 115.92C67.1258 116.224 66.9978 116.636 66.9978 117.156C66.9978 117.596 67.1258 118.004 67.3818 118.38C67.6378 118.748 67.9698 119.004 68.3778 119.148L68.4258 119.16L68.4498 119.148H68.4738ZM72.8498 113.316C72.5298 113.316 72.3698 113.152 72.3698 112.824C72.3698 112.496 72.5298 112.332 72.8498 112.332C73.1698 112.332 73.3298 112.496 73.3298 112.824C73.3298 113.152 73.1698 113.316 72.8498 113.316ZM74.2178 113.316C73.8978 113.316 73.7378 113.152 73.7378 112.824C73.7378 112.496 73.8978 112.332 74.2178 112.332C74.5378 112.332 74.6978 112.496 74.6978 112.824C74.6978 113.152 74.5378 113.316 74.2178 113.316ZM75.5018 119.256H75.9218V120H75.4058C74.6858 120 74.1458 119.756 73.7858 119.268C73.4098 119.756 72.8658 120 72.1538 120H71.6378V119.256H72.0578C72.9378 119.256 73.3778 118.8 73.3778 117.888V115.284L74.1818 114.864V117.888C74.1818 118.8 74.6218 119.256 75.5018 119.256ZM75.6808 120V119.256H76.0168C76.9288 119.256 77.3848 118.784 77.3848 117.84V112.68L78.1888 112.26V117.852C78.1888 118.532 77.9888 119.068 77.5888 119.46C77.2128 119.82 76.7168 120 76.1008 120H75.6808ZM80.3495 120V112.68L81.1535 112.26V120H80.3495ZM89.2692 119.556C88.9332 119.748 88.5012 119.844 87.9732 119.844C87.2772 119.844 86.7332 119.576 86.3412 119.04C86.0052 118.584 85.8372 118.008 85.8372 117.312C85.8372 116.472 86.0612 115.816 86.5092 115.344C86.9012 114.928 87.4212 114.72 88.0692 114.72C88.7332 114.72 89.2452 114.928 89.6052 115.344C89.9172 115.704 90.0732 116.184 90.0732 116.784V119.424C90.0732 120.168 89.9172 120.78 89.6052 121.26C89.2932 121.748 88.8492 122.06 88.2732 122.196C88.0812 122.252 87.8732 122.28 87.6492 122.28C87.1852 122.28 86.7332 122.168 86.2932 121.944V121.236C86.7092 121.46 87.1212 121.572 87.5292 121.572C87.8572 121.572 88.1452 121.5 88.3932 121.356C88.9532 121.076 89.2452 120.476 89.2692 119.556ZM89.2692 116.856C89.2692 115.92 88.8692 115.452 88.0692 115.452C87.6212 115.452 87.2652 115.616 87.0012 115.944C86.7452 116.272 86.6172 116.724 86.6172 117.3C86.6172 117.86 86.7412 118.308 86.9892 118.644C87.2372 118.972 87.5732 119.136 87.9972 119.136C88.6292 119.136 89.0532 118.96 89.2692 118.608V116.856ZM91.4552 112.092L91.6832 111.672H91.9832C91.9032 111.536 91.8632 111.392 91.8632 111.24C91.8632 111.016 91.9472 110.82 92.1152 110.652C92.2912 110.484 92.4912 110.4 92.7152 110.4C92.8912 110.4 93.0632 110.456 93.2312 110.568V111.012C93.0792 110.9 92.9272 110.844 92.7752 110.844C92.6472 110.844 92.5352 110.884 92.4392 110.964C92.3512 111.044 92.3072 111.14 92.3072 111.252C92.3072 111.396 92.3672 111.536 92.4872 111.672H93.5312L93.3032 112.092H91.4552ZM92.1152 120V113.16L92.9192 112.74V120H92.1152Z" fill="#989898"/>
<defs>
<filter id="filter0_d_87_1357" x="0.5" y="0" width="116" height="116" filterUnits="userSpaceOnUse" color-interpolation-filters="sRGB">
<feFlood flood-opacity="0" result="BackgroundImageFix"/>
<feColorMatrix in="SourceAlpha" type="matrix" values="0 0 0 0 0 0 0 0 0 0 0 0 0 0 0 0 0 0 127 0" result="hardAlpha"/>
<feOffset dy="2"/>
<feGaussianBlur stdDeviation="7"/>
<feComposite in2="hardAlpha" operator="out"/>
<feColorMatrix type="matrix" values="0 0 0 0 0 0 0 0 0 0 0 0 0 0 0 0 0 0 0.05 0"/>
<feBlend mode="normal" in2="BackgroundImageFix" result="effect1_dropShadow_87_1357"/>
<feBlend mode="normal" in="SourceGraphic" in2="effect1_dropShadow_87_1357" result="shape"/>
</filter>
</defs>
</svg>
