<?xml version="1.0" standalone="no"?>
<!DOCTYPE svg PUBLIC "-//W3C//DTD SVG 20010904//EN"
 "http://www.w3.org/TR/2001/REC-SVG-20010904/DTD/svg10.dtd">
<svg version="1.0" xmlns="http://www.w3.org/2000/svg"
 width="128.000000pt" height="128.000000pt" viewBox="0 0 128.000000 128.000000"
 preserveAspectRatio="xMidYMid meet">

<g transform="translate(0.000000,128.000000) scale(0.100000,-0.100000)"
fill="#000000" stroke="none">
<path d="M470 1173 c-73 -83 -94 -171 -69 -296 11 -52 14 -57 39 -57 24 0 28
5 39 55 17 76 40 91 115 74 43 -9 65 -10 95 0 62 18 86 2 108 -73 16 -53 22
-61 44 -64 31 -4 36 8 45 110 5 52 3 78 -10 112 -32 85 -136 149 -267 166
-105 13 -104 14 -139 -27z"/>
<path d="M460 495 c19 -19 35 -35 37 -35 2 0 3 16 3 35 0 34 -1 35 -37 35
l-37 0 34 -35z"/>
<path d="M779 493 c0 -35 -11 -49 -122 -165 l-123 -127 -89 124 c-97 135 -99
136 -178 114 -70 -19 -137 -98 -137 -161 0 -31 106 -135 185 -183 130 -78 307
-109 450 -80 138 28 287 116 368 217 29 36 30 40 18 77 -24 81 -102 141 -184
141 -37 0 -48 5 -82 40 -30 31 -47 40 -72 40 -31 0 -33 -2 -34 -37z"/>
</g>
</svg>
