<svg width="58" height="58" viewBox="0 0 58 58" fill="none" xmlns="http://www.w3.org/2000/svg">
<g filter="url(#filter0_d_407_1186)">
<rect x="4" width="50" height="50" rx="25" fill="#FEFEFE"/>
<rect x="4.5" y="0.5" width="49" height="49" rx="24.5" stroke="#EFC559" stroke-opacity="0.1"/>
</g>
<path d="M23.9979 34.0038H22.9975C21.3399 34.0038 19.9962 32.6601 19.9962 31.0025V30.0021" stroke="#FDC53A" stroke-width="1.5" stroke-linecap="round" stroke-linejoin="round"/>
<path d="M34.0021 15.9963H35.0025C36.66 15.9963 38.0037 17.34 38.0037 18.9975V19.9979" stroke="#FDC53A" stroke-width="1.5" stroke-linecap="round" stroke-linejoin="round"/>
<path d="M19.9962 19.9979V18.9975C19.9962 17.34 21.3399 15.9963 22.9975 15.9963H23.9979" stroke="#FDC53A" stroke-width="1.5" stroke-linecap="round" stroke-linejoin="round"/>
<path d="M38.0037 30.0021V31.0025C38.0037 32.6601 36.66 34.0038 35.0025 34.0038H34.0021" stroke="#FDC53A" stroke-width="1.5" stroke-linecap="round" stroke-linejoin="round"/>
<path d="M22.9974 25V21.9988C22.9974 20.3412 24.3411 18.9975 25.9987 18.9975H32.0012C33.6587 18.9975 35.0024 20.3412 35.0024 21.9988V25" stroke="#FDC53A" stroke-width="1.5" stroke-linecap="round" stroke-linejoin="round"/>
<path d="M35.0024 28.0013C35.0024 29.6588 33.6587 31.0025 32.0012 31.0025H25.9987C24.3411 31.0025 22.9974 29.6588 22.9974 28.0013" stroke="#FDC53A" stroke-width="1.5" stroke-linecap="round" stroke-linejoin="round"/>
<path d="M20.9967 25H38.0038" stroke="#FDC53A" stroke-width="1.5" stroke-linecap="round" stroke-linejoin="round"/>
<defs>
<filter id="filter0_d_407_1186" x="0" y="0" width="58" height="58" filterUnits="userSpaceOnUse" color-interpolation-filters="sRGB">
<feFlood flood-opacity="0" result="BackgroundImageFix"/>
<feColorMatrix in="SourceAlpha" type="matrix" values="0 0 0 0 0 0 0 0 0 0 0 0 0 0 0 0 0 0 127 0" result="hardAlpha"/>
<feOffset dy="4"/>
<feGaussianBlur stdDeviation="2"/>
<feComposite in2="hardAlpha" operator="out"/>
<feColorMatrix type="matrix" values="0 0 0 0 0 0 0 0 0 0 0 0 0 0 0 0 0 0 0.1 0"/>
<feBlend mode="normal" in2="BackgroundImageFix" result="effect1_dropShadow_407_1186"/>
<feBlend mode="normal" in="SourceGraphic" in2="effect1_dropShadow_407_1186" result="shape"/>
</filter>
</defs>
</svg>
